<svg width="32" height="32" viewBox="0 0 32 32" fill="none" xmlns="http://www.w3.org/2000/svg">
<g clip-path="url(#clip0_41_504)">
<rect width="32" height="32" rx="4" fill="#FAF7F0"/>
<path fill-rule="evenodd" clip-rule="evenodd" d="M14.8712 13.3368C13.7815 12.851 12.5579 12.6266 11.2861 12.736C7.26213 13.0823 4.27958 16.6396 4.62441 20.6815C4.96924 24.7234 8.51087 27.7193 12.5349 27.3731C13.8066 27.2636 14.9744 26.8335 15.966 26.1686C13.6078 25.1174 11.8765 22.8422 11.6406 20.0778C11.4048 17.3133 12.7255 14.7756 14.8712 13.3368Z" fill="#B17457"/>
<path fill-rule="evenodd" clip-rule="evenodd" d="M14.0636 16.5388C13.5093 17.5989 13.2058 18.8102 13.2309 20.0918C13.3103 24.147 16.6486 27.3698 20.6873 27.2901C24.726 27.2104 27.9357 23.8584 27.8563 19.8032C27.8312 18.5216 27.4806 17.3231 26.8853 16.2857C25.6857 18.5798 23.3112 20.1651 20.5489 20.2196C17.7866 20.2742 15.352 18.7838 14.0636 16.5388Z" fill="#B17457"/>
<path fill-rule="evenodd" clip-rule="evenodd" d="M16.2459 17.7772C17.2706 18.3892 18.459 18.7576 19.7346 18.8003C23.7711 18.9355 27.1525 15.7583 27.2871 11.7038C27.4217 7.64934 24.2586 4.25298 20.2221 4.11782C18.9463 4.0751 17.736 4.36328 16.6729 4.90547C18.8906 6.22994 20.3412 8.6952 20.2491 11.4683C20.1571 14.2413 18.5463 16.604 16.2459 17.7772Z" fill="#B17457"/>
<path fill-rule="evenodd" clip-rule="evenodd" d="M17.9135 14.8976C18.4704 13.8385 18.7767 12.6274 18.7546 11.3453C18.6848 7.28866 15.3535 4.05694 11.3141 4.1271C7.27462 4.19727 4.05664 7.54275 4.12651 11.5994C4.14859 12.8816 4.49645 14.0813 5.08949 15.1204C6.29462 12.8285 8.67314 11.2483 11.436 11.2003C14.1987 11.1523 16.6302 12.6489 17.9135 14.8976Z" fill="#B17457"/>
</g>
<defs>
<clipPath id="clip0_41_504">
<rect width="32" height="32" fill="white"/>
</clipPath>
</defs>
</svg>
