<svg
  width="24"
  height="24"
  viewBox="0 0 24 24"
  fill="none"
  xmlns="http://www.w3.org/2000/svg"
>
  <path
    fill-rule="evenodd"
    clip-rule="evenodd"
    d="M10.871 9.33678C9.7813 8.85108 8.55778 8.62671 7.28609 8.73613C3.2621 9.08237 0.279546 12.6396 0.624377 16.6815C0.969208 20.7234 4.51084 23.7193 8.53483 23.3731C9.8066 23.2637 10.9743 22.8335 11.9659 22.1687C9.60755 21.1175 7.87617 18.8423 7.64032 16.0778C7.40447 13.3133 8.72515 10.7755 10.871 9.33678Z"
    fill="currentColor"
  />
  <path
    fill-rule="evenodd"
    clip-rule="evenodd"
    d="M10.0636 12.5388C9.50925 13.5988 9.2058 14.8102 9.23088 16.0919C9.31023 20.147 12.6486 23.3698 16.6873 23.2901C20.726 23.2104 23.9356 19.8584 23.8563 15.8032C23.8312 14.5215 23.4806 13.323 22.8851 12.2856C21.6855 14.5796 19.3111 16.1649 16.5488 16.2194C13.7866 16.2739 11.352 14.7836 10.0636 12.5388Z"
    fill="currentColor"
  />
  <path
    fill-rule="evenodd"
    clip-rule="evenodd"
    d="M12.2461 13.7773C13.2707 14.3892 14.4591 14.7575 15.7346 14.8002C19.7711 14.9354 23.1525 11.7582 23.2871 7.70376C23.4217 3.64932 20.2586 0.252982 16.2221 0.117824C14.9462 0.0751024 13.7358 0.363326 12.6726 0.905591C14.8904 2.23002 16.3412 4.69535 16.2491 7.46857C16.1571 10.2414 14.5464 12.604 12.2461 13.7773Z"
    fill="currentColor"
  />
  <path
    fill-rule="evenodd"
    clip-rule="evenodd"
    d="M13.9135 10.8973C14.4704 9.83823 14.7767 8.62725 14.7546 7.34524C14.6847 3.28857 11.3535 0.0568896 7.31404 0.127073C3.27459 0.197256 0.0565934 3.54273 0.126443 7.59939C0.148517 8.88144 0.496332 10.0811 1.0893 11.1202C2.2944 8.8281 4.67299 7.24785 7.43586 7.19985C10.1987 7.15184 12.6302 8.64849 13.9135 10.8973Z"
    fill="currentColor"
  />
</svg>