<svg className="w-full h-auto" viewBox="0 0 96 90" fill="none" xmlns="http://www.w3.org/2000/svg">
  <g clip-path="url(#clip0_41_130)">
    <path
      d="M23.1585 14.071C20.6719 15.5016 18.3002 18.0293 18.3002 18.0293C18.2442 18.0888 18.2142 18.168 18.2168 18.2495C18.2193 18.331 18.2543 18.4081 18.314 18.464C18.3736 18.5198 18.4531 18.5498 18.5349 18.5472C18.6168 18.5447 18.6942 18.51 18.7503 18.4506C18.7503 18.4506 21.1082 15.9613 23.4676 14.6039C23.5385 14.563 23.5902 14.4958 23.6114 14.417C23.6325 14.3382 23.6213 14.2542 23.5804 14.1836C23.5601 14.1486 23.5331 14.118 23.5009 14.0934C23.4687 14.0688 23.432 14.0507 23.3928 14.0403C23.3537 14.0298 23.3128 14.0271 23.2726 14.0324C23.2324 14.0377 23.1936 14.0508 23.1585 14.071Z"
      fill="#4A4947" />
    <path
      d="M23.0972 26.0431C23.0972 26.0431 22.5194 26.5862 22.2455 27.0395C22.2034 27.1094 22.1908 27.1931 22.2106 27.2722C22.2303 27.3514 22.2808 27.4194 22.351 27.4615C22.3857 27.4823 22.4242 27.4962 22.4643 27.5022C22.5044 27.5082 22.5454 27.5063 22.5847 27.4966C22.6241 27.4869 22.6612 27.4695 22.6938 27.4455C22.7264 27.4215 22.754 27.3914 22.7749 27.3568C22.9493 27.0682 23.5291 26.4826 23.5291 26.4826C23.5877 26.4256 23.6211 26.3477 23.622 26.2661C23.6228 26.1845 23.5912 26.1059 23.5339 26.0476C23.4766 25.9893 23.3983 25.9562 23.3164 25.9553C23.2345 25.9545 23.1557 25.986 23.0972 26.0431Z"
      fill="#4A4947" />
    <path
      d="M26.5695 31.7215C26.4877 31.7177 26.4078 31.7463 26.3472 31.8012C26.3472 31.8012 26.139 31.9898 25.9002 32.2204C25.6613 32.451 25.399 32.7088 25.2463 32.9184C25.2224 32.9511 25.2053 32.9882 25.1958 33.0275C25.1864 33.0668 25.1848 33.1076 25.1911 33.1475C25.1975 33.1874 25.2117 33.2257 25.233 33.2602C25.2542 33.2946 25.282 33.3245 25.3149 33.3483C25.3812 33.3961 25.4638 33.4158 25.5447 33.403C25.6256 33.3902 25.698 33.3459 25.7461 33.2799C25.8315 33.1626 26.099 32.8852 26.33 32.6623C26.561 32.4393 26.7629 32.2561 26.7629 32.2561C26.8234 32.2012 26.8596 32.1246 26.8635 32.0432C26.8673 31.9618 26.8386 31.8821 26.7836 31.8218C26.7563 31.7919 26.7233 31.7677 26.6866 31.7505C26.6499 31.7333 26.6101 31.7234 26.5695 31.7215Z"
      fill="#4A4947" />
    <path
      d="M23.6225 42.2372L23.1037 42.7138C23.0435 42.7691 23.0079 42.8459 23.0046 42.9275C23.0012 43.009 23.0306 43.0885 23.0861 43.1484C23.1416 43.2084 23.2188 43.2439 23.3006 43.2472C23.3824 43.2505 23.4622 43.2213 23.5224 43.166L24.0412 42.6898C24.1014 42.6345 24.1372 42.5577 24.1405 42.4762C24.1439 42.3947 24.1146 42.3152 24.0592 42.2552C24.0317 42.2254 23.9986 42.2013 23.9617 42.1843C23.9249 42.1673 23.8851 42.1577 23.8445 42.156C23.8039 42.1544 23.7634 42.1607 23.7253 42.1746C23.6872 42.1886 23.6523 42.2098 23.6225 42.2372Z"
      fill="#4A4947" />
    <path
      d="M25.0574 48.8715C25.0574 48.8715 24.6874 49.1723 24.2884 49.5286C24.0889 49.7068 23.8817 49.8991 23.7059 50.079C23.5301 50.2589 23.3886 50.4085 23.2971 50.5878C23.2787 50.6239 23.2676 50.6631 23.2645 50.7034C23.2613 50.7437 23.2662 50.7842 23.2788 50.8226C23.2914 50.8611 23.3114 50.8967 23.3378 50.9274C23.3642 50.958 23.3964 50.9833 23.4326 51.0016C23.4687 51.0199 23.5081 51.0309 23.5486 51.034C23.589 51.0372 23.6297 51.0323 23.6683 51.0198C23.7068 51.0073 23.7426 50.9873 23.7734 50.961C23.8042 50.9347 23.8295 50.9027 23.8479 50.8666C23.8658 50.8315 23.9891 50.6717 24.1488 50.5082C24.3085 50.3447 24.5075 50.1592 24.7006 49.9867C25.087 49.6416 25.4479 49.3484 25.4479 49.3484C25.4793 49.3228 25.5054 49.2914 25.5246 49.2558C25.5438 49.2202 25.5558 49.1811 25.5598 49.1409C25.5639 49.1007 25.56 49.0601 25.5483 49.0214C25.5366 48.9828 25.5174 48.9467 25.4917 48.9154C25.4399 48.8523 25.3651 48.8122 25.2837 48.8039C25.2022 48.7957 25.1208 48.82 25.0574 48.8715Z"
      fill="#4A4947" />
    <path
      d="M5.38154 71.2327C4.16495 71.7247 2.56307 72.7454 2.56307 72.7454C2.49405 72.7892 2.44531 72.8585 2.42754 72.9381C2.40977 73.0176 2.42441 73.101 2.46828 73.1698C2.49002 73.2039 2.5183 73.2334 2.5515 73.2566C2.58469 73.2799 2.62216 73.2963 2.66175 73.3051C2.70135 73.3139 2.7423 73.3149 2.78226 73.3079C2.82222 73.3009 2.86041 73.2862 2.89465 73.2645C2.89465 73.2645 4.50093 72.2527 5.61385 71.8026C5.68971 71.7719 5.75023 71.7125 5.7821 71.6373C5.81397 71.5622 5.81457 71.4775 5.78378 71.4019C5.75296 71.3264 5.69327 71.2661 5.61784 71.2343C5.54241 71.2026 5.45741 71.202 5.38154 71.2327Z"
      fill="#4A4947" />
    <path
      d="M12.0064 76.0221C12.0064 76.0221 10.5197 76.6134 8.7922 77.4885C7.06468 78.3636 5.09682 79.5031 4.07419 80.708C4.02139 80.7703 3.99558 80.8509 4.00243 80.9322C4.00928 81.0134 4.04824 81.0886 4.11072 81.1413C4.14168 81.1674 4.1775 81.1871 4.21613 81.1995C4.25476 81.2118 4.29546 81.2164 4.33589 81.2131C4.37631 81.2097 4.41568 81.1985 4.45174 81.18C4.4878 81.1615 4.51985 81.1361 4.54606 81.1052C5.43469 80.0582 7.37197 78.8981 9.07208 78.0368C10.7722 77.1756 12.2356 76.5934 12.2356 76.5934C12.3116 76.5632 12.3725 76.5041 12.4048 76.4291C12.4371 76.3542 12.4383 76.2695 12.4079 76.1938C12.3929 76.1562 12.3706 76.122 12.3423 76.0931C12.3139 76.0641 12.2802 76.041 12.2429 76.025C12.2056 76.0091 12.1655 76.0007 12.1249 76.0001C12.0843 75.9996 12.044 76.0071 12.0064 76.0221Z"
      fill="#4A4947" />
    <path
      d="M13.413 81.7701C13.349 81.7192 13.2673 81.6958 13.1859 81.7049C13.1045 81.7141 13.0301 81.7551 12.9791 81.8188L12.0984 82.9192C12.0473 82.983 12.0238 83.0644 12.033 83.1455C12.0422 83.2265 12.0833 83.3006 12.1473 83.3515C12.2114 83.4023 12.2931 83.4258 12.3745 83.4166C12.4558 83.4075 12.5302 83.3665 12.5813 83.3027L13.462 82.2023C13.513 82.1386 13.5365 82.0572 13.5273 81.9761C13.5182 81.8951 13.477 81.821 13.413 81.7701Z"
      fill="#4A4947" />
    <path
      d="M38.8505 74.0776C38.8109 74.0688 38.77 74.0678 38.73 74.0748C38.69 74.0817 38.6518 74.0965 38.6175 74.1181L37.9613 74.5329C37.927 74.5545 37.8973 74.5826 37.874 74.6157C37.8506 74.6488 37.834 74.6861 37.8252 74.7255C37.8163 74.765 37.8153 74.8057 37.8223 74.8456C37.8292 74.8854 37.844 74.9235 37.8658 74.9576C37.8875 74.9917 37.9158 75.0212 37.949 75.0444C37.9822 75.0677 38.0196 75.0841 38.0592 75.0929C38.0988 75.1017 38.1398 75.1027 38.1798 75.0957C38.2197 75.0888 38.2579 75.074 38.2922 75.0523L38.9484 74.6376C38.9827 74.616 39.0124 74.5878 39.0357 74.5548C39.0591 74.5217 39.0757 74.4844 39.0845 74.4449C39.0934 74.4055 39.0944 74.3647 39.0874 74.3249C39.0804 74.2851 39.0657 74.247 39.0439 74.2129C39 74.144 38.9305 74.0954 38.8505 74.0776Z"
      fill="#4A4947" />
    <path
      d="M45.5219 77.2355L40.5437 79.9691C40.472 80.0085 40.4189 80.0747 40.3961 80.153C40.3734 80.2314 40.3828 80.3155 40.4223 80.387C40.4619 80.4584 40.5283 80.5112 40.6069 80.5339C40.6856 80.5566 40.7701 80.5472 40.8418 80.5078L45.8201 77.7745C45.8556 77.755 45.887 77.7287 45.9123 77.6971C45.9376 77.6656 45.9565 77.6293 45.9678 77.5905C45.979 77.5516 45.9825 77.511 45.978 77.4708C45.9734 77.4306 45.961 77.3917 45.9414 77.3563C45.9018 77.2849 45.8354 77.232 45.7568 77.2094C45.6781 77.1867 45.5936 77.1961 45.5219 77.2355Z"
      fill="#4A4947" />
    <path
      d="M45.2634 88.3864C45.1815 88.3836 45.102 88.4132 45.0421 88.4688L43.9674 89.4676C43.9075 89.5232 43.8723 89.6003 43.8694 89.6818C43.8666 89.7633 43.8964 89.8426 43.9522 89.9022C44.0081 89.9619 44.0854 89.997 44.1672 89.9998C44.2491 90.0026 44.3287 89.973 44.3886 89.9174L45.4633 88.9189C45.5232 88.8633 45.5585 88.7863 45.5614 88.7048C45.5643 88.6233 45.5346 88.544 45.4788 88.4843C45.4511 88.4546 45.4179 88.4308 45.3809 88.414C45.3439 88.3972 45.304 88.3878 45.2634 88.3864Z"
      fill="#4A4947" />
    <path
      d="M42.0788 18.9789C42.039 18.971 41.9981 18.9709 41.9583 18.9787C41.9185 18.9866 41.8806 19.0021 41.8469 19.0246C41.7787 19.0698 41.7314 19.1401 41.7153 19.2201C41.6992 19.3001 41.7157 19.3831 41.761 19.451C42.3523 20.3355 43.4743 20.7052 45.0727 20.4563C45.1128 20.45 45.1513 20.436 45.1859 20.4149C45.2206 20.3939 45.2507 20.3663 45.2746 20.3336C45.2985 20.301 45.3157 20.2639 45.3253 20.2247C45.3348 20.1854 45.3365 20.1446 45.3302 20.1047C45.3175 20.0241 45.2732 19.9519 45.207 19.9039C45.1408 19.8558 45.0582 19.8359 44.9773 19.8486C43.505 20.0778 42.7178 19.7725 42.275 19.1101C42.2296 19.0422 42.1591 18.995 42.0788 18.9789Z"
      fill="#4A4947" />
    <path
      d="M44.7381 13.5168C44.6987 13.5267 44.6617 13.5442 44.6292 13.5683C44.5966 13.5924 44.5692 13.6227 44.5484 13.6574C44.5276 13.6921 44.5138 13.7305 44.5079 13.7705C44.502 13.8105 44.5041 13.8512 44.514 13.8904C44.7502 14.825 45.1381 15.5508 45.6918 16.0479C46.2456 16.545 46.9584 16.7964 47.772 16.8125C47.8125 16.8133 47.8528 16.8062 47.8906 16.7915C47.9284 16.7768 47.9629 16.7548 47.9922 16.7268C48.0214 16.6988 48.0449 16.6653 48.0612 16.6283C48.0774 16.5913 48.0862 16.5515 48.087 16.5111C48.0878 16.4707 48.0807 16.4305 48.0659 16.3929C48.0511 16.3552 48.0291 16.3209 48.001 16.2917C47.9729 16.2626 47.9392 16.2392 47.9021 16.223C47.8649 16.2068 47.8249 16.1981 47.7844 16.1973C47.0873 16.1834 46.5435 15.9838 46.1054 15.5906C45.6674 15.1973 45.3283 14.5931 45.1127 13.74C45.0927 13.6609 45.042 13.593 44.9718 13.5512C44.9015 13.5093 44.8175 13.497 44.7381 13.5168Z"
      fill="#4A4947" />
    <path
      d="M43.0524 11.2875C42.793 11.3156 42.6304 11.5118 42.5288 11.7127C42.4273 11.9136 42.3622 12.157 42.316 12.4441C42.2235 13.0182 42.2154 13.7654 42.3044 14.5807C42.3933 15.3959 42.5624 16.1236 42.7765 16.6646C42.8836 16.935 42.9997 17.1592 43.1422 17.3336C43.2847 17.5081 43.4858 17.6649 43.7453 17.6369C44.0047 17.6087 44.1673 17.4125 44.2689 17.2117C44.3704 17.0108 44.4354 16.767 44.4816 16.48C44.5741 15.9058 44.5823 15.1589 44.4933 14.3437C44.4043 13.5284 44.2353 12.8004 44.0211 12.2595C43.914 11.989 43.798 11.7652 43.6555 11.5907C43.513 11.4162 43.3119 11.2594 43.0524 11.2875ZM43.1187 11.8951C43.0773 11.8996 43.1015 11.8808 43.1796 11.9765C43.2577 12.0722 43.3578 12.2503 43.4503 12.4839C43.6353 12.9511 43.7993 13.6395 43.8834 14.4097C43.9674 15.18 43.9557 15.8874 43.8758 16.3832C43.8358 16.6312 43.7765 16.8266 43.7209 16.9367C43.6652 17.0468 43.6375 17.0334 43.6789 17.029C43.7204 17.0245 43.6965 17.0435 43.6184 16.9478C43.5403 16.8521 43.4402 16.674 43.3477 16.4404C43.1628 15.9732 42.9984 15.2849 42.9143 14.5146C42.8303 13.7444 42.8424 13.037 42.9222 12.5411C42.9622 12.2932 43.0215 12.0977 43.0772 11.9876C43.1328 11.8775 43.1602 11.8906 43.1187 11.8951Z"
      fill="#4A4947" />
    <path
      d="M45.2965 10.9558C45.0941 10.9777 44.9578 11.1192 44.8767 11.2549C44.7955 11.3906 44.7455 11.5449 44.7064 11.7232C44.6283 12.0798 44.6022 12.5339 44.6275 13.0444C44.6294 13.0845 44.6393 13.1239 44.6566 13.1602C44.6738 13.1966 44.6981 13.2292 44.7279 13.2562C44.7578 13.2832 44.7928 13.3041 44.8308 13.3176C44.8688 13.3312 44.9091 13.3371 44.9494 13.3352C44.9897 13.3332 45.0292 13.3233 45.0657 13.3061C45.1022 13.2889 45.1349 13.2646 45.162 13.2348C45.1891 13.205 45.21 13.1702 45.2235 13.1323C45.2371 13.0945 45.243 13.0543 45.241 13.0141C45.2178 12.5441 45.2465 12.1292 45.3068 11.854C45.3275 11.7599 45.351 11.7129 45.3737 11.6587C45.4218 11.7286 45.4773 11.8183 45.534 11.9615C45.6699 12.305 45.7932 12.8193 45.8559 13.3946C45.9187 13.9698 45.9094 14.4985 45.8508 14.863C45.8254 15.0208 45.7889 15.1276 45.756 15.2057C45.7507 15.1981 45.7481 15.196 45.7426 15.1875C45.6982 15.1195 45.6284 15.0718 45.5487 15.055C45.469 15.0382 45.3859 15.0536 45.3176 15.0979C45.2493 15.1421 45.2015 15.2116 45.1847 15.291C45.1678 15.3704 45.1832 15.4532 45.2277 15.5212C45.2651 15.5785 45.3043 15.6333 45.3524 15.6856C45.353 15.6862 45.3536 15.6868 45.3542 15.6874C45.4639 15.8054 45.6313 15.9188 45.8361 15.8968C46.0691 15.8716 46.2082 15.6974 46.2904 15.5346C46.3725 15.3718 46.4223 15.182 46.4579 14.9606C46.5291 14.5178 46.5349 13.9493 46.4672 13.329C46.3995 12.7088 46.2714 12.1549 46.1063 11.7377C46.0238 11.5291 45.9342 11.3544 45.8188 11.213C45.7034 11.0716 45.53 10.9313 45.297 10.9566L45.2965 10.9558Z"
      fill="#4A4947" />
    <path
      d="M47.4052 0.00171668C46.6314 -0.00619379 45.9367 0.356825 45.3368 0.934905C44.7368 1.51309 44.2123 2.30963 43.7261 3.238C43.4638 3.7373 43.0965 4.35822 42.5221 4.74285C41.9477 5.12754 41.1659 5.31558 39.9205 4.89288C38.5965 4.44355 37.5167 4.15712 36.5688 4.08673C35.6209 4.01636 34.7979 4.172 34.0553 4.60174C33.3452 5.01111 31.8946 6.11234 31.8452 8.4368C31.0594 8.35553 28.5007 8.24362 27.1045 10.204C26.9473 10.4253 26.2225 11.367 25.8429 12.8593C25.4633 14.3517 25.4144 16.4245 26.5061 18.9683C26.703 19.4253 27.3457 20.7361 28.529 21.8815C29.7124 23.0269 31.4656 24.001 33.7817 23.6854C34.534 23.583 35.0993 23.1955 35.4751 22.7251C35.8509 22.2546 36.0496 21.707 36.1207 21.2323C36.1569 20.9905 36.1767 20.796 36.0348 20.6026C35.9639 20.5058 35.8438 20.4409 35.7436 20.4223C35.6434 20.4038 35.5607 20.4146 35.4844 20.4292C35.1792 20.488 34.894 20.6337 34.6096 20.6647C34.0911 20.7226 33.5644 20.491 33.1268 20.1054C32.6891 19.7198 32.3589 19.1837 32.2451 18.7393C32.0865 18.1208 32.0182 17.4512 32.1041 16.9917C32.147 16.7619 32.2262 16.592 32.3223 16.4904C32.4183 16.3889 32.5275 16.3332 32.7349 16.3332C33.3293 16.3332 33.8822 16.6243 34.3269 16.9814C34.7717 17.3385 35.0989 17.7542 35.2331 17.9414C35.4641 18.2616 35.8793 18.4019 36.2554 18.2514C36.4435 18.1762 36.6101 18.0153 36.6984 17.802C36.7867 17.5886 36.8057 17.3313 36.758 17.0284C36.6607 16.4118 36.2891 15.577 36.2065 14.7978C36.1652 14.4082 36.195 14.0506 36.3354 13.7568C36.4757 13.4631 36.7217 13.2118 37.2047 13.0221C38.3914 12.5572 40.0256 11.8262 41.6228 11.3459C43.2201 10.8655 44.7666 10.6667 45.7218 11.1313C46.0658 11.2987 46.4483 11.3913 46.8703 11.3301C47.2923 11.2689 47.7403 11.0673 48.2735 10.7025C48.8235 10.3255 49.78 9.48605 50.5874 8.41483C51.3948 7.34359 52.0631 6.03633 51.8865 4.72465C51.5519 2.24162 49.6982 0.0214637 47.4063 0L47.4052 0.00171668ZM47.3991 0.616975C49.2824 0.634378 50.9723 2.57693 51.273 4.80842C51.414 5.8558 50.8508 7.04097 50.0924 8.04711C49.334 9.05326 48.3906 9.87615 47.9223 10.1971C47.4355 10.5302 47.0701 10.681 46.78 10.7231C46.4899 10.7651 46.2619 10.7117 45.9917 10.5802C44.7569 9.9796 43.0946 10.2618 41.4433 10.7584C39.792 11.255 38.138 11.9969 36.9776 12.4514C36.3799 12.6862 35.9847 13.0588 35.7767 13.4941C35.5687 13.9295 35.5428 14.4065 35.5913 14.8644C35.6883 15.7803 36.0783 16.6911 36.1469 17.1256C36.1821 17.3492 36.1582 17.4918 36.1262 17.5692C36.0942 17.6466 36.0627 17.6668 36.0245 17.6822C35.948 17.7127 35.7959 17.6699 35.734 17.584C35.5769 17.3649 35.2231 16.9127 34.713 16.5031C34.2026 16.0933 33.5262 15.719 32.7335 15.719C32.3867 15.719 32.079 15.8501 31.8714 16.0695C31.6639 16.2889 31.5526 16.5742 31.4954 16.8801C31.381 17.492 31.4721 18.2171 31.6453 18.8924C31.798 19.4887 32.1867 20.1002 32.7166 20.5672C33.2463 21.0339 33.9353 21.3596 34.6765 21.2772C35.0536 21.2361 35.3578 21.1089 35.5216 21.0599C35.5241 21.0905 35.5216 21.0566 35.5093 21.1423C35.4533 21.5166 35.2859 21.9745 34.9916 22.3429C34.6972 22.7114 34.2883 22.9962 33.6976 23.0767C31.5894 23.364 30.0522 22.4991 28.9589 21.441C27.8658 20.3829 27.2454 19.1254 27.0735 18.7262C26.032 16.2991 26.0917 14.3854 26.4414 13.0107C26.791 11.6363 27.4157 10.8307 27.6081 10.5596C28.9854 8.62652 32.0921 9.07747 32.0921 9.07747C32.1372 9.08456 32.1834 9.08158 32.2273 9.06875C32.2711 9.05593 32.3115 9.03359 32.3457 9.00331C32.3798 8.97303 32.4068 8.93557 32.4246 8.89365C32.4424 8.85174 32.4507 8.8064 32.4489 8.76091C32.3534 6.43379 33.6956 5.5196 34.3649 5.13391C34.9953 4.76908 35.6645 4.63696 36.522 4.70062C37.3794 4.76429 38.4182 5.03359 39.7202 5.47553C41.1007 5.94405 42.1409 5.73919 42.8658 5.25373C43.5907 4.76827 44.0001 4.0418 44.2725 3.52332C44.741 2.62877 45.2411 1.88292 45.7653 1.37781C46.2895 0.872681 46.8185 0.61165 47.3981 0.617662L47.3991 0.616975Z"
      fill="#4A4947" />
    <path fill-rule="evenodd" clip-rule="evenodd"
      d="M35.9754 15.3059L33.3529 16.1128C33.1553 16.0583 32.947 16.0266 32.7335 16.0266C31.6252 16.0266 31.6128 17.5226 31.9446 18.8164C32.2111 19.8571 33.3829 21.1122 34.643 20.9716C35.3524 20.8942 35.9418 20.3387 35.8148 21.1878C35.6877 22.0369 35.0824 23.1988 33.7394 23.3816C29.3151 23.9846 27.1586 19.7041 26.7897 18.8481C24.6561 13.8768 27.0068 10.8743 27.3562 10.3821C28.8686 8.25859 32.1405 8.77362 32.1405 8.77362C32.0399 6.32138 33.5029 5.27545 34.2106 4.86762C35.5836 4.07305 37.1948 4.2928 39.8208 5.18404C42.4468 6.07529 43.4651 4.39827 43.9998 3.38046C44.9546 1.55753 46.0487 0.295379 47.4023 0.309443C49.49 0.328779 51.2619 2.41009 51.5795 4.76741C51.8972 7.12648 49.1159 9.75277 48.0976 10.4507C47.0776 11.1485 46.4705 11.1556 45.8564 10.8567C43.6663 9.79145 39.4378 11.8183 37.0907 12.7377C35.8095 13.2422 35.7636 14.3039 35.9754 15.3059Z"
      fill="#4A4947" />
    <path
      d="M42.4615 12.9869L33.2619 15.8187C33.2231 15.8307 33.187 15.8501 33.1558 15.8759C33.1246 15.9017 33.0987 15.9333 33.0798 15.969C33.0608 16.0048 33.0491 16.0439 33.0454 16.0842C33.0416 16.1244 33.0458 16.165 33.0578 16.2036C33.0698 16.2422 33.0893 16.2781 33.1152 16.3092C33.1411 16.3402 33.173 16.3659 33.2088 16.3848C33.2447 16.4036 33.284 16.4152 33.3243 16.419C33.3647 16.4227 33.4055 16.4185 33.4442 16.4065L42.6438 13.5747C42.6826 13.5628 42.7186 13.5434 42.7499 13.5176C42.7811 13.4918 42.807 13.4601 42.8259 13.4244C42.8449 13.3886 42.8565 13.3495 42.8603 13.3093C42.8641 13.269 42.8598 13.2284 42.8478 13.1898C42.8359 13.1512 42.8164 13.1154 42.7905 13.0843C42.7645 13.0532 42.7327 13.0275 42.6968 13.0086C42.6609 12.9898 42.6217 12.9782 42.5813 12.9745C42.5409 12.9707 42.5002 12.975 42.4615 12.9869Z"
      fill="#4A4947" />
    <path
      d="M35.3617 22.0285C35.3212 22.0305 35.2815 22.0404 35.2448 22.0577C35.2081 22.0751 35.1752 22.0994 35.148 22.1294C35.0932 22.1899 35.0646 22.2697 35.0688 22.3511C35.0729 22.4326 35.1094 22.509 35.1701 22.5637C35.1701 22.5637 35.4494 22.8109 35.6757 23.3524C35.902 23.8938 36.0607 24.7062 35.7419 25.8275C35.7196 25.906 35.7295 25.9901 35.7695 26.0613C35.8094 26.1325 35.8761 26.185 35.9549 26.2072C36.0337 26.2294 36.1182 26.2195 36.1896 26.1797C36.2611 26.14 36.3138 26.0735 36.3361 25.995C36.6915 24.745 36.519 23.7693 36.2458 23.1158C35.9727 22.4624 35.5844 22.1074 35.5844 22.1074C35.5236 22.0527 35.4435 22.0243 35.3617 22.0285Z"
      fill="#4A4947" />
    <path
      d="M46.3408 17.6516C46.2638 17.6793 46.201 17.7364 46.1663 17.8103C46.1315 17.8841 46.1276 17.9687 46.1554 18.0454C46.7412 19.6613 46.112 21.7923 44.6536 23.1666C43.1952 24.5409 40.9601 25.1837 38.2422 23.8474C38.1687 23.8113 38.0839 23.8058 38.0063 23.832C37.9288 23.8582 37.8648 23.914 37.8286 23.9872C37.8106 24.0234 37.8 24.0628 37.7973 24.1031C37.7947 24.1434 37.8 24.1839 37.8131 24.2221C37.8261 24.2604 37.8465 24.2957 37.8732 24.3261C37.9 24.3565 37.9325 24.3813 37.9688 24.3992C40.8824 25.8316 43.455 25.143 45.0779 23.6136C46.7009 22.0843 47.4263 19.7397 46.7362 17.8363C46.7083 17.7596 46.651 17.6971 46.5769 17.6624C46.5028 17.6278 46.4179 17.6239 46.3408 17.6516Z"
      fill="#4A4947" />
    <path
      d="M37.173 30.2619C34.6415 30.2391 33.4277 32.5245 33.4277 32.5245C33.3894 32.5966 33.3814 32.6809 33.4055 32.7589C33.4296 32.8369 33.4838 32.9021 33.5562 32.9403C33.6286 32.9784 33.7133 32.9863 33.7916 32.9623C33.8699 32.9383 33.9354 32.8843 33.9737 32.8122C33.9737 32.8122 35.0116 30.858 37.1671 30.8771C38.7045 30.8919 41.4591 31.7924 44.2679 33.7148C44.7173 34.0223 45.7076 34.7168 46.8045 35.3103C47.9013 35.9038 49.0909 36.4253 50.0838 36.3032C51.7143 36.1045 53.7522 36.3194 53.7522 36.3194C53.7702 36.3216 53.7883 36.3222 53.8064 36.3212C53.8064 36.3212 54.1185 36.2734 54.4478 36.6789C54.7748 37.0817 55.1042 38.0229 54.7897 40.0995C54.7603 40.1217 54.6899 40.1609 54.5891 40.1988C54.3873 40.2748 54.0674 40.3515 53.6726 40.4175C52.883 40.5495 51.7888 40.6464 50.6011 40.7172C49.3374 40.7935 47.3353 41.3131 44.6798 40.8141C42.0244 40.315 38.7306 38.804 35.0108 34.7435C34.9835 34.7137 34.9505 34.6895 34.9138 34.6723C34.8771 34.6552 34.8373 34.6454 34.7968 34.6435C34.7562 34.6417 34.7158 34.6478 34.6776 34.6615C34.6395 34.6753 34.6044 34.6964 34.5744 34.7236C34.5445 34.7509 34.5202 34.7837 34.503 34.8203C34.4857 34.8569 34.4759 34.8965 34.4741 34.9368C34.4722 34.9772 34.4784 35.0175 34.4921 35.0555C34.5059 35.0935 34.5271 35.1284 34.5544 35.1583C38.3456 39.2966 41.7767 40.8946 44.5651 41.4186C47.3535 41.9427 49.5144 41.3993 50.6384 41.3315C51.8367 41.2599 52.9431 41.1633 53.7753 41.0242C54.1914 40.9546 54.5375 40.8764 54.808 40.7746C54.9432 40.7237 55.0603 40.6681 55.1641 40.5895C55.2678 40.511 55.3715 40.3952 55.3971 40.2311C55.7366 38.0347 55.4183 36.8955 54.9283 36.292C54.4383 35.6885 53.765 35.7076 53.765 35.7076L53.8191 35.7094C53.8191 35.7094 51.7523 35.4814 50.0086 35.6939C49.3144 35.7793 48.156 35.3425 47.0999 34.771C46.0438 34.1996 45.0763 33.5224 44.6185 33.2092C41.7307 31.2328 38.9367 30.2803 37.174 30.2634L37.173 30.2619Z"
      fill="#4A4947" />
    <path
      d="M38.49 27.3769C38.4089 27.3653 38.3266 27.3863 38.2611 27.4351C38.1955 27.484 38.1522 27.5568 38.1405 27.6375C38.1347 27.6775 38.1368 27.7182 38.1468 27.7574C38.1569 27.7966 38.1745 27.8334 38.1988 27.8657C38.2231 27.8981 38.2535 27.9253 38.2884 27.946C38.3233 27.9666 38.3619 27.9802 38.4021 27.986C38.4021 27.986 39.0352 28.0821 39.5685 28.5267C40.1018 28.9713 40.5594 29.7196 40.1672 31.2566C40.1572 31.2958 40.1551 31.3365 40.1609 31.3765C40.1667 31.4164 40.1804 31.4549 40.2012 31.4896C40.2219 31.5244 40.2493 31.5546 40.2818 31.5788C40.3143 31.603 40.3512 31.6205 40.3906 31.6305C40.4699 31.6506 40.554 31.6385 40.6244 31.5968C40.6948 31.5551 40.7457 31.4874 40.7659 31.4083C41.2014 29.7021 40.6488 28.6248 39.9649 28.0546C39.2809 27.4845 38.49 27.3769 38.49 27.3769Z"
      fill="#4A4947" />
    <path
      d="M36.9197 26.7088C32.6393 27.9228 29.9705 32.7274 28.8086 34.7611C27.2421 37.5034 26.5556 40.4327 26.3469 42.9689C26.1381 45.5051 26.4016 47.6401 26.7677 48.8506C27.135 50.0671 27.8169 50.779 28.65 51.0318C29.4832 51.2846 30.4103 51.0965 31.3117 50.7032C36.149 48.5941 38.7119 45.5292 39.5717 44.4988C40.0558 43.9175 40.2356 43.2122 40.2341 42.5613C40.2324 41.9105 40.0589 41.3094 39.7957 40.8769C39.618 40.5849 39.4941 40.0322 39.4379 39.5685C39.3817 39.1048 39.38 38.7321 39.38 38.7321C39.3798 38.6917 39.3717 38.6517 39.356 38.6145C39.3403 38.5772 39.3174 38.5434 39.2886 38.515C39.2598 38.4865 39.2256 38.464 39.1881 38.4487C39.1505 38.4334 39.1104 38.4257 39.0698 38.4259C38.9879 38.4262 38.9095 38.459 38.8518 38.5169C38.7942 38.5749 38.762 38.6533 38.7623 38.7349C38.7623 38.7349 38.7641 39.1409 38.8247 39.6423C38.8854 40.1436 38.9918 40.7426 39.2676 41.1959C39.458 41.5088 39.6153 42.0248 39.6165 42.5627C39.6182 43.1007 39.4716 43.6554 39.0963 44.106C38.2372 45.1358 35.7739 48.0862 31.0638 50.1398C30.241 50.4989 29.4541 50.6327 28.83 50.4433C28.2059 50.254 27.6872 49.76 27.3592 48.6738C27.0283 47.5796 26.7599 45.4847 26.9628 43.0197C27.1657 40.5547 27.8343 37.7119 29.3456 35.0663C30.5097 33.0288 33.1634 28.4145 37.0892 27.3011C37.168 27.2787 37.2346 27.2261 37.2744 27.1548C37.3142 27.0835 37.324 26.9994 37.3016 26.921C37.2791 26.8426 37.2263 26.7762 37.1547 26.7366C37.0832 26.6969 36.9988 26.6872 36.92 26.7095L36.9197 26.7088Z"
      fill="#4A4947" />
    <path
      d="M39.0885 44.5922C39.0885 44.5922 44.2116 42.2507 47.3211 41.8288C50.4289 41.4087 64.1324 41.4105 66.4195 41.4597C68.7085 41.5072 69.2114 42.307 69.2432 43.4004C69.2749 44.4955 68.7967 46.6191 67.2367 48.1256C66.8943 48.456 65.6307 48.8393 63.3065 49.0133C60.9823 49.1873 54.465 49.4897 52.8943 49.7077C51.3219 49.9256 50.4483 51.6695 49.7689 52.6205C48.8953 53.8492 45.6093 57.8537 38.755 58.4478C35.6384 58.7168 30.9211 58.469 28.7222 50.7308C29.4546 50.961 30.3193 50.8011 31.1876 50.4214C35.5695 48.5106 38.0473 45.8175 39.0885 44.5922Z"
      fill="#4A4947" />
    <path
      d="M66.4259 41.1524C65.2689 41.1275 61.2776 41.1146 57.1746 41.1606C53.0715 41.2066 48.8933 41.3061 47.2794 41.5242C44.0634 41.9606 38.9595 44.3128 38.9595 44.3128C38.9184 44.3315 38.8819 44.3591 38.8526 44.3935C37.8233 45.6047 35.3873 48.2542 31.0638 50.1395C30.2355 50.5018 29.4421 50.6343 28.8155 50.4372C28.7623 50.4205 28.7057 50.4184 28.6514 50.4312C28.5972 50.444 28.5475 50.4711 28.5075 50.5098C28.4675 50.5484 28.4387 50.5971 28.4243 50.6507C28.4098 50.7043 28.4102 50.7608 28.4253 50.8142C29.5403 54.7379 31.3227 56.8229 33.2474 57.8622C35.1721 58.9015 37.2022 58.8905 38.782 58.7542C45.7463 58.1505 49.1184 54.0677 50.0207 52.7987C50.7309 51.8044 51.5715 50.202 52.9364 50.0128C53.6832 49.9092 55.7202 49.7762 57.8353 49.6517C59.9504 49.5271 62.1586 49.408 63.3289 49.3203C64.5037 49.2324 65.4151 49.0918 66.0877 48.9272C66.7603 48.7626 67.1863 48.6025 67.451 48.347C69.0925 46.7618 69.5858 44.5877 69.5511 43.3919C69.534 42.8005 69.3722 42.2119 68.8738 41.8013C68.3754 41.3907 67.6054 41.1772 66.4256 41.1527L66.4259 41.1524ZM66.4128 41.7673C67.5216 41.7903 68.1473 42.0006 68.4805 42.2751C68.8137 42.5496 68.9196 42.9075 68.9342 43.4095C68.963 44.404 68.4998 46.477 67.0212 47.9048C66.9433 47.9798 66.5662 48.1764 65.9406 48.3295C65.3148 48.4826 64.4325 48.6204 63.2831 48.7064C62.1292 48.7928 59.9164 48.9124 57.7992 49.0371C55.6819 49.1617 53.6751 49.2887 52.8512 49.4031C51.0716 49.6498 50.1653 51.5345 49.5168 52.4423C48.6714 53.6314 45.4717 57.5564 38.7282 58.141C37.1914 58.2736 35.3042 58.2733 33.5414 57.3214C31.8566 56.4116 30.2577 54.6083 29.1726 51.1222C29.8623 51.1887 30.5945 51.0163 31.3113 50.7029C35.6953 48.7911 38.1933 46.111 39.2697 44.8504C39.3602 44.8095 44.3859 42.5375 47.3622 42.1336C48.856 41.9317 53.0838 41.8218 57.1811 41.7759C61.2785 41.73 65.2821 41.7429 66.4124 41.7672L66.4128 41.7673Z"
      fill="#4A4947" />
    <path
      d="M73.4946 40.6082C73.0982 40.6282 72.6545 40.8095 72.0935 41.1805C71.6195 41.4953 70.8316 41.76 70.1743 41.9297C69.517 42.0993 68.9924 42.182 68.9924 42.182C68.9523 42.1883 68.9139 42.2025 68.8793 42.2236C68.8447 42.2447 68.8147 42.2723 68.7908 42.305C68.767 42.3377 68.7498 42.3748 68.7404 42.414C68.7309 42.4533 68.7293 42.494 68.7356 42.5339C68.7484 42.6145 68.7928 42.6867 68.8591 42.7347C68.9253 42.7827 69.008 42.8025 69.0889 42.7897C69.0889 42.7897 69.6415 42.7029 70.3291 42.5254C71.0164 42.3479 71.8403 42.0881 72.4358 41.6928C72.9457 41.3556 73.3048 41.2339 73.526 41.2227C73.7473 41.2115 73.8469 41.2736 73.9668 41.4116C74.0221 41.4748 74.0922 41.7488 74.0096 42.0914C73.927 42.434 73.7199 42.8273 73.3802 43.1379C72.5766 43.8747 70.1404 46.365 69.7255 46.7907C69.5333 46.9883 69.2375 47.2076 69.001 47.2645C68.8828 47.2929 68.7874 47.2886 68.6915 47.2466C68.5956 47.2046 68.4852 47.1167 68.3692 46.9204C68.3486 46.8856 68.3213 46.8552 68.2889 46.8309C68.2565 46.8066 68.2197 46.7888 68.1804 46.7787C68.1411 46.7686 68.1002 46.7663 68.0601 46.772C68.0199 46.7776 67.9813 46.7911 67.9463 46.8116C67.9114 46.8321 67.8808 46.8593 67.8564 46.8915C67.832 46.9238 67.8142 46.9606 67.804 46.9997C67.7939 47.0388 67.7916 47.0795 67.7972 47.1195C67.8029 47.1596 67.8164 47.1981 67.837 47.2329C68.0016 47.5112 68.208 47.7071 68.443 47.81C68.6779 47.913 68.9275 47.9148 69.1461 47.8622C69.5832 47.757 69.9286 47.4658 70.1688 47.2188C70.5801 46.7968 73.0489 44.2779 73.7983 43.5907C74.2351 43.1912 74.4992 42.6971 74.6107 42.2346C74.7221 41.7724 74.7094 41.3243 74.4335 41.0078C74.2234 40.7663 73.8908 40.5875 73.4946 40.6075V40.6082Z"
      fill="#4A4947" />
    <path
      d="M70.2849 46.4149C70.245 46.4077 70.2041 46.4083 70.1645 46.4168C70.1248 46.4254 70.0872 46.4416 70.0539 46.4646C70.0205 46.4875 69.992 46.5169 69.9701 46.5508C69.9481 46.5848 69.933 46.6227 69.9258 46.6624L63.8607 79.9685L50.0803 87.1112L49.2951 57.6224C49.3661 57.5162 49.9303 56.6773 50.8603 55.6352C51.8508 54.5255 53.2046 53.2714 54.5901 52.6801C54.6274 52.6642 54.6612 52.6411 54.6895 52.6122C54.7178 52.5832 54.7402 52.549 54.7552 52.5115C54.7702 52.4739 54.7777 52.4338 54.7772 52.3934C54.7767 52.353 54.7682 52.3131 54.7521 52.276C54.7199 52.201 54.6591 52.1419 54.5831 52.1115C54.5071 52.0812 54.4221 52.0822 54.3468 52.1143C52.8081 52.771 51.4194 54.0824 50.3985 55.2263C49.3775 56.3702 48.7254 57.3594 48.7254 57.3594C48.6907 57.4119 48.673 57.4738 48.6747 57.5366L49.4761 87.6194C49.4775 87.6715 49.4922 87.7224 49.5188 87.7673C49.5454 87.8123 49.583 87.8497 49.6281 87.8762C49.6732 87.9026 49.7243 87.9172 49.7766 87.9186C49.829 87.92 49.8808 87.9081 49.9273 87.8841L64.2802 80.4447C64.322 80.423 64.3583 80.3921 64.3862 80.3543C64.4142 80.3165 64.4331 80.2728 64.4415 80.2266L70.5334 46.7723C70.548 46.6921 70.53 46.6094 70.4834 46.5424C70.4368 46.4753 70.3654 46.4295 70.2849 46.4149Z"
      fill="currentColor" />
    <path
      d="M66.9333 36.3951C66.5087 36.3465 66.1126 36.4382 65.7731 36.5266C65.1609 36.6876 63.6274 36.917 63.6274 36.917C63.5873 36.9229 63.5487 36.9365 63.5139 36.9573C63.4791 36.978 63.4487 37.0054 63.4245 37.0378C63.4003 37.0702 63.3828 37.1071 63.3729 37.1463C63.363 37.1855 63.3609 37.2262 63.3668 37.2661C63.3728 37.3061 63.3866 37.3446 63.4074 37.3792C63.4283 37.4139 63.4558 37.4441 63.4884 37.4682C63.521 37.4923 63.558 37.5097 63.5973 37.5195C63.6367 37.5293 63.6776 37.5313 63.7177 37.5254C63.7177 37.5254 65.218 37.3086 65.9299 37.1216H65.9317C66.2536 37.0379 66.5755 36.9732 66.864 37.0062C67.1529 37.0393 67.4158 37.1506 67.6926 37.487C67.9967 37.8573 68.2033 38.2449 68.2241 38.4263C68.2345 38.517 68.2259 38.5278 68.1997 38.552C68.1742 38.5762 68.0812 38.6285 67.8698 38.6406C67.788 38.6453 67.7115 38.6821 67.657 38.743C67.6025 38.8039 67.5745 38.8839 67.5792 38.9653C67.5839 39.0468 67.621 39.123 67.6821 39.1773C67.7433 39.2316 67.8235 39.2594 67.9053 39.2547C68.2013 39.2379 68.4477 39.1668 68.626 38.9973C68.8043 38.8278 68.8628 38.5745 68.8377 38.3562C68.7875 37.9197 68.5089 37.5091 68.1707 37.0973C67.8052 36.6531 67.3596 36.4441 66.935 36.3954L66.9333 36.3951Z"
      fill="#4A4947" />
    <path
      d="M66.9105 37.5003C66.8812 37.4724 66.8467 37.4504 66.8089 37.4358C66.7711 37.4211 66.7308 37.414 66.6902 37.4149C66.6497 37.4157 66.6097 37.4245 66.5725 37.4408C66.5354 37.457 66.5018 37.4804 66.4738 37.5096C66.4457 37.5388 66.4237 37.5731 66.4089 37.6108C66.3942 37.6484 66.387 37.6886 66.3878 37.729C66.3887 37.7694 66.3975 37.8092 66.4138 37.8462C66.4301 37.8832 66.4535 37.9167 66.4828 37.9446C66.4828 37.9446 66.7488 38.1987 67.0432 38.4964C67.3377 38.794 67.6744 39.1632 67.7478 39.2747C67.8416 39.4174 67.8722 39.5347 67.8736 39.594C67.8754 39.6533 67.8686 39.6392 67.8718 39.6366C67.8712 39.6366 67.8706 39.6366 67.8701 39.6366C67.8782 39.6311 67.8739 39.6501 67.7756 39.615C67.6775 39.5798 67.5156 39.4831 67.3199 39.3066C66.8991 38.9252 66.0146 38.0724 66.0146 38.0724C65.9855 38.0443 65.9511 38.0221 65.9133 38.0073C65.8756 37.9925 65.8353 37.9852 65.7948 37.9858C65.7542 37.9865 65.7142 37.9951 65.677 38.0112C65.6398 38.0273 65.6061 38.0505 65.5779 38.0796C65.5497 38.1086 65.5275 38.1428 65.5126 38.1804C65.4976 38.2179 65.4902 38.2581 65.4909 38.2985C65.4915 38.3389 65.5002 38.3787 65.5163 38.4158C65.5324 38.4529 65.5556 38.4865 65.5848 38.5146C65.5848 38.5146 66.4644 39.363 66.9049 39.7623C67.1395 39.9739 67.3525 40.117 67.567 40.1938C67.7813 40.2706 68.0274 40.2738 68.2171 40.1458C68.404 40.02 68.4956 39.7919 68.4904 39.5786C68.4853 39.365 68.4045 39.1511 68.2636 38.9369C68.1023 38.6915 67.7842 38.3687 67.4826 38.0638C67.181 37.7589 66.9097 37.4997 66.9097 37.4997L66.9105 37.5003Z"
      fill="#4A4947" />
    <path
      d="M64.67 38.5948C64.6388 38.569 64.6028 38.5496 64.564 38.5376C64.5252 38.5257 64.4845 38.5215 64.4441 38.5253C64.4037 38.529 64.3645 38.5407 64.3286 38.5596C64.2927 38.5784 64.2609 38.6042 64.2351 38.6353C64.2092 38.6664 64.1897 38.7023 64.1777 38.741C64.1658 38.7796 64.1616 38.8202 64.1654 38.8604C64.1692 38.9006 64.181 38.9397 64.2 38.9755C64.219 39.0112 64.2448 39.0428 64.2761 39.0686C64.2761 39.0686 64.7023 39.4204 65.2009 39.8085C65.6994 40.1965 66.2409 40.6106 66.5961 40.7887C66.9503 40.9676 67.3607 40.9691 67.6057 40.7097C67.8509 40.4502 67.8544 40.0622 67.7101 39.6698C67.6962 39.6318 67.6749 39.597 67.6474 39.5672C67.6199 39.5375 67.5868 39.5135 67.55 39.4965C67.5132 39.4795 67.4734 39.4699 67.4328 39.4682C67.3923 39.4665 67.3518 39.4729 67.3138 39.4868C67.2757 39.5007 67.2407 39.5219 67.2108 39.5493C67.181 39.5766 67.1568 39.6096 67.1398 39.6463C67.1227 39.6829 67.1131 39.7226 67.1114 39.763C67.1098 39.8034 67.1161 39.8437 67.13 39.8816C67.2275 40.1466 67.1719 40.2712 67.1559 40.2881C67.1398 40.305 67.0875 40.347 66.8753 40.2397C66.8747 40.2397 66.8741 40.2397 66.8736 40.2397C66.6605 40.133 66.0712 39.7062 65.5807 39.3244C65.0901 38.9425 64.6693 38.5955 64.6693 38.5955L64.67 38.5948Z"
      fill="#4A4947" />
    <path
      d="M58.9862 38.3043C58.7369 38.3092 58.4821 38.3306 58.2255 38.3692C57.407 38.4934 55.1675 38.8173 55.1675 38.8173C55.0864 38.829 55.0134 38.8723 54.9644 38.9376C54.9154 39.003 54.8945 39.085 54.9062 39.1658C54.918 39.2465 54.9614 39.3192 55.027 39.368C55.0926 39.4168 55.175 39.4377 55.2561 39.426C55.2561 39.426 57.4913 39.103 58.3179 38.9776C59.2327 38.8401 60.1505 38.9702 60.6893 39.2255C61.3607 39.5455 62.4362 39.8874 63.1989 39.7741C63.2333 39.769 63.3959 39.7955 63.5894 39.8861C63.783 39.9767 64.0103 40.1153 64.2312 40.2631C64.4522 40.4108 64.6676 40.5676 64.8496 40.6974C65.0316 40.8272 65.1462 40.9226 65.3101 40.9889C65.5221 41.0741 65.8128 41.1478 66.1322 41.0671C66.2919 41.0268 66.4813 40.9144 66.5627 40.7156C66.644 40.5167 66.6098 40.3005 66.5155 40.0753C66.4998 40.038 66.477 40.0041 66.4482 39.9756C66.4195 39.9471 66.3854 39.9245 66.3479 39.9092C66.3104 39.8938 66.2702 39.8859 66.2296 39.886C66.1891 39.8861 66.1489 39.8942 66.1115 39.9098C66.0741 39.9253 66.0401 39.948 66.0114 39.9767C65.9828 40.0053 65.9602 40.0393 65.9447 40.0767C65.9293 40.114 65.9214 40.1541 65.9215 40.1945C65.9216 40.2349 65.9297 40.2749 65.9453 40.3122C66.0045 40.4534 65.9841 40.4991 65.9905 40.4835C65.9969 40.4678 66.0226 40.4601 65.9804 40.4708C65.8962 40.4921 65.6319 40.4543 65.5417 40.4183C65.5556 40.4239 65.3863 40.3238 65.2083 40.1968C65.0304 40.0699 64.8092 39.9086 64.5748 39.7519C64.3405 39.5951 64.0937 39.4423 63.8514 39.3289C63.609 39.2155 63.3741 39.1254 63.1068 39.1651C62.6626 39.2311 61.5222 38.9406 60.9546 38.67C60.4296 38.4212 59.7342 38.2894 58.9865 38.3044L58.9862 38.3043Z"
      fill="#4A4947" />
    <path
      d="M65.6751 35.4599C65.5141 35.4545 65.3413 35.4813 65.1684 35.5602C64.7259 35.7621 63.7683 35.9146 63.0862 36.1809C62.0812 36.5757 60.1552 36.4661 58.5106 36.3814C56.8691 36.3005 54.7194 36.1967 54.7194 36.1967C54.6789 36.1948 54.6384 36.2008 54.6002 36.2145C54.562 36.2281 54.5269 36.2491 54.4969 36.2763C54.4669 36.3034 54.4425 36.3362 54.4252 36.3728C54.4079 36.4093 54.398 36.4489 54.3961 36.4892C54.3941 36.5296 54.4002 36.5699 54.4139 36.6079C54.4276 36.646 54.4487 36.6809 54.476 36.7109C54.5032 36.7408 54.5361 36.765 54.5728 36.7823C54.6095 36.7995 54.6492 36.8093 54.6897 36.8113C54.6897 36.8113 56.8389 36.9151 58.4799 36.996C60.1142 37.0801 62.046 37.2518 63.3141 36.7536C63.8744 36.5348 64.8152 36.3988 65.428 36.1192C65.6101 36.036 65.7175 36.0579 65.8795 36.1239C66.0416 36.19 66.2242 36.3214 66.4617 36.4167C66.4993 36.4318 66.5396 36.4394 66.5802 36.439C66.6207 36.4386 66.6608 36.4302 66.6981 36.4144C66.7355 36.3985 66.7693 36.3755 66.7977 36.3467C66.8261 36.3178 66.8485 36.2836 66.8636 36.2461C66.8941 36.1705 66.8932 36.0859 66.8612 36.0109C66.8291 35.9359 66.7685 35.8766 66.6926 35.8461C66.5578 35.792 66.3654 35.657 66.1136 35.5543C65.9877 35.5029 65.8386 35.465 65.6775 35.4595L65.6751 35.4599Z"
      fill="#4A4947" />
    <path
      d="M92.0196 27.6534C85.8243 27.7176 82.5489 27.8301 80.5485 28.0668C78.5481 28.3035 77.7941 28.688 76.8011 29.2314C76.2093 29.5552 74.4168 30.6498 72.119 32.0691C69.8211 33.4884 67.0339 35.224 64.5101 36.7992C64.4407 36.8426 64.3915 36.9116 64.3732 36.9911C64.3549 37.0706 64.3691 37.1541 64.4126 37.2232C64.4561 37.2923 64.5254 37.3414 64.6052 37.3596C64.685 37.3778 64.7689 37.3637 64.8382 37.3204C67.3617 35.7455 70.1484 34.0103 72.4447 32.592C74.741 31.1736 76.5627 30.0636 77.0986 29.7704C78.0874 29.2293 78.6773 28.908 80.6216 28.6779C82.5659 28.4479 85.8362 28.3328 92.0261 28.2687C92.3238 28.2653 92.5539 28.2944 92.6979 28.3446C92.8419 28.3948 92.8923 28.4435 92.9288 28.5258C93.0019 28.6905 92.955 29.1774 92.5638 30.0104C91.4799 32.318 90.8052 33.5893 90.2383 34.3873C89.6712 35.1853 89.2204 35.5203 88.4935 36.0168C87.7963 36.4934 83.0939 39.4919 78.6004 42.3472C74.1068 45.2025 69.7962 47.9329 69.7962 47.9329C69.7619 47.9546 69.7323 47.9828 69.709 48.0158C69.6856 48.0489 69.6691 48.0862 69.6603 48.1257C69.6514 48.1651 69.6505 48.2059 69.6575 48.2457C69.6645 48.2855 69.6793 48.3235 69.701 48.3576C69.7228 48.3917 69.7511 48.4212 69.7843 48.4444C69.8175 48.4676 69.855 48.4841 69.8946 48.4928C69.9342 48.5016 69.9751 48.5025 70.0151 48.4955C70.055 48.4885 70.0932 48.4737 70.1274 48.452C70.1274 48.452 74.4386 45.7216 78.9327 42.866C83.4267 40.0104 88.0771 37.0478 88.843 36.5242C89.5808 36.0204 90.1314 35.6032 90.7429 34.7426C91.3543 33.8821 92.0351 32.5885 93.1236 30.271C93.5389 29.3866 93.7158 28.7766 93.4941 28.2773C93.3833 28.0276 93.1572 27.8525 92.9023 27.7636C92.6475 27.6748 92.3567 27.6497 92.0199 27.6534H92.0196ZM61.1622 38.8929C58.9842 40.2554 57.4765 41.2032 57.4765 41.2032C57.4073 41.2468 57.3582 41.316 57.3402 41.3955C57.3222 41.4751 57.3366 41.5586 57.3803 41.6276C57.4241 41.6965 57.4936 41.7454 57.5735 41.7633C57.6533 41.7813 57.7371 41.7669 57.8064 41.7233C57.8064 41.7233 59.3132 40.7762 61.4907 39.4141C61.5251 39.3926 61.5548 39.3645 61.5783 39.3316C61.6018 39.2986 61.6186 39.2614 61.6276 39.222C61.6366 39.1826 61.6377 39.1417 61.6309 39.1019C61.6241 39.062 61.6095 39.0239 61.5879 38.9897C61.5443 38.9206 61.475 38.8716 61.3952 38.8535C61.3153 38.8353 61.2315 38.8495 61.1622 38.8929Z"
      fill="currentColor" />
    <path fill-rule="evenodd" clip-rule="evenodd"
      d="M57.6415 41.4632C57.6415 41.4632 59.1486 40.5157 61.3264 39.1533Z" fill="black" />
    <path
      d="M41.5656 28.406C41.5323 28.383 41.4947 28.3668 41.455 28.3583C41.4154 28.3497 41.3744 28.3491 41.3345 28.3563C41.2946 28.3635 41.2565 28.3785 41.2224 28.4004C41.1883 28.4224 41.1589 28.4507 41.1358 28.484C41.0893 28.551 41.0714 28.6338 41.0861 28.714C41.1007 28.7942 41.1468 28.8653 41.2141 28.9118C41.2141 28.9118 42.6539 29.9045 44.3534 31.0168C46.0529 32.129 47.9948 33.3552 49.0783 33.8534C51.2244 34.8393 53.7825 34.9795 55.132 35.3373C56.5925 35.725 59.1747 36.0834 61.003 35.9817C62.7891 35.8806 64.2165 35.6604 64.2165 35.6604C64.2973 35.6479 64.3699 35.6039 64.4183 35.5381C64.4666 35.4723 64.4868 35.3901 64.4743 35.3095C64.4681 35.2695 64.4541 35.2312 64.433 35.1966C64.4119 35.1621 64.3842 35.132 64.3515 35.1081C64.3187 35.0842 64.2816 35.067 64.2421 35.0574C64.2027 35.0479 64.1618 35.0461 64.1217 35.0523C64.1217 35.0523 62.722 35.2682 60.9682 35.3675C59.2563 35.4627 56.6643 35.1073 55.2906 34.7426C53.8024 34.3481 51.3309 34.2104 49.3369 33.2944C48.352 32.8416 46.3849 31.6102 44.6926 30.5028C43.0002 29.3952 41.5656 28.406 41.5656 28.406Z"
      fill="#4A4947" />
    <path fill-rule="evenodd" clip-rule="evenodd"
      d="M82.8778 28.186C83.9649 28.1245 85.2973 28.077 86.958 28.0383C86.958 28.0383 83.1002 31.1885 82.2478 31.9039C79.3183 34.3614 77.52 34.7886 76.47 34.7411C75.4181 34.6936 75.1605 33.9079 75.7658 33.5563C76.8353 32.9375 82.8778 28.186 82.8778 28.186Z"
      fill="currentColor" />
    <path
      d="M27.7431 67.102C27.6739 67.0586 27.5902 67.0443 27.5103 67.0623C27.4305 67.0803 27.3611 67.1292 27.3175 67.1981C27.3175 67.1981 25.4687 70.1178 23.4639 73.4911C21.4592 76.8645 19.3056 80.6576 18.6566 82.5473C18.5818 82.7648 18.4671 82.9589 18.353 83.0898C18.2436 83.2152 18.1398 83.2601 18.1186 83.2656C18.1147 83.2615 18.1071 83.2582 18.0893 83.213C18.044 83.0978 18.0053 82.8187 18.0507 82.3777C18.1478 81.4243 18.293 79.1694 18.4326 77.045C18.5024 75.9828 18.5707 74.955 18.6301 74.1462C18.6893 73.3385 18.7461 72.7207 18.7707 72.5837C18.7707 72.5802 18.8875 71.9593 19.5755 71.0644C20.2655 70.1671 21.5232 69.0288 23.8144 68.1155C23.8904 68.0852 23.9512 68.0261 23.9835 67.9512C24.0157 67.8762 24.0168 67.7916 23.9864 67.7159C23.9714 67.6784 23.949 67.6442 23.9207 67.6152C23.8924 67.5863 23.8586 67.5633 23.8213 67.5473C23.784 67.5314 23.7439 67.523 23.7034 67.5225C23.6628 67.5221 23.6225 67.5295 23.5849 67.5446C21.2012 68.4946 19.8427 69.7049 19.0851 70.6902C18.3274 71.6756 18.1641 72.468 18.1641 72.468C18.1635 72.4695 18.1629 72.4709 18.1623 72.4724C18.1172 72.7223 18.0727 73.2891 18.0131 74.1015C17.9534 74.9139 17.8854 75.9423 17.8156 77.0048C17.6759 79.1296 17.5288 81.3985 17.4354 82.3155C17.3846 82.8095 17.4052 83.1623 17.5133 83.4375C17.5673 83.5751 17.649 83.6979 17.769 83.7826C17.8891 83.8672 18.0428 83.8999 18.1768 83.8849C18.4448 83.8548 18.6439 83.6937 18.8186 83.4935C18.9932 83.2932 19.1402 83.0372 19.2401 82.7467C19.8336 81.0187 21.9951 77.1694 23.9947 73.8049C25.9942 70.4403 27.8389 67.5266 27.8389 67.5266C27.8606 67.4924 27.8752 67.4543 27.8821 67.4145C27.889 67.3747 27.8879 67.3339 27.8789 67.2945C27.8699 67.2551 27.8533 67.2179 27.8299 67.1849C27.8064 67.1519 27.7767 67.1238 27.7424 67.1023L27.7431 67.102Z"
      fill="currentColor" />
    <path
      d="M31.5674 57.06C31.4877 57.0417 31.4039 57.0556 31.3344 57.0988C31.3344 57.0988 29.4745 58.2582 27.5326 59.4644C25.5907 60.6706 23.5374 61.9402 23.2475 62.1064C23.2942 62.0796 23.2098 62.118 23.0951 62.1379C22.9805 62.1579 22.8186 62.1791 22.6188 62.2008C22.2193 62.2442 21.6675 62.2901 21.0019 62.3443C19.6706 62.4528 17.8812 62.5948 15.8961 62.8222C11.9259 63.277 7.17783 64.0667 3.6971 65.6424C3.20896 65.8631 2.89809 66.0622 2.7082 66.3109C2.61324 66.4352 2.55026 66.5827 2.54689 66.7363C2.54354 66.8898 2.6016 67.0328 2.68132 67.1421C2.84076 67.3606 3.07159 67.4876 3.32518 67.6004C3.57878 67.7132 3.86106 67.8018 4.12898 67.8737C4.59596 67.9983 6.47737 68.6383 8.39616 69.3668C10.3148 70.0953 12.3281 70.9427 13.0507 71.419C14.6651 72.4851 16.2739 73.2262 18.4754 72.998C18.5157 72.9939 18.5548 72.9818 18.5905 72.9626C18.6262 72.9433 18.6578 72.9173 18.6833 72.8859C18.7089 72.8545 18.728 72.8185 18.7396 72.7797C18.7512 72.741 18.755 72.7004 18.7508 72.6602C18.7466 72.62 18.7345 72.581 18.7152 72.5454C18.6959 72.5099 18.6697 72.4785 18.6382 72.453C18.6067 72.4275 18.5705 72.4085 18.5316 72.397C18.4927 72.3854 18.452 72.3817 18.4116 72.3858C16.3741 72.5971 14.9613 71.9424 13.392 70.9061C12.5227 70.3329 10.5471 69.5253 8.61606 68.7921C6.68498 68.059 4.85574 67.4307 4.28857 67.2794C4.03942 67.2125 3.78218 67.1302 3.57577 67.0383C3.36936 66.9465 3.21959 66.8353 3.17938 66.7802C3.15928 66.7527 3.1628 66.7504 3.1628 66.7493C3.16281 66.7475 3.16102 66.7315 3.19828 66.683C3.27238 66.586 3.5083 66.4026 3.95108 66.2024C7.30883 64.6824 12.0206 63.8852 15.965 63.4333C17.9372 63.2074 19.7187 63.0661 21.0511 62.9575C21.7174 62.9032 22.2707 62.8575 22.6842 62.8126C22.891 62.7901 23.0624 62.7679 23.2002 62.7439C23.3381 62.7199 23.4251 62.7137 23.5539 62.6399C23.9205 62.4298 25.9155 61.1928 27.8579 59.9863C29.8003 58.7798 31.6605 57.6203 31.6605 57.6203C31.6949 57.5989 31.7247 57.571 31.7483 57.5381C31.7718 57.5052 31.7887 57.468 31.7978 57.4286C31.8069 57.3892 31.8081 57.3484 31.8014 57.3086C31.7947 57.2687 31.7802 57.2306 31.7587 57.1963C31.7152 57.1272 31.6459 57.0782 31.566 57.06H31.5674Z"
      fill="currentColor" />
    <path fill-rule="evenodd" clip-rule="evenodd"
      d="M34.0447 59.877C34.3518 59.652 34.6765 59.5114 35.1742 59.8454C35.6736 60.1811 36.0301 60.5661 35.4495 61.0021C34.8689 61.4398 31.4364 63.9852 30.9475 64.2594C30.4587 64.5336 29.661 64.502 28.9198 63.9658C28.2474 63.4789 33.697 60.1301 34.0447 59.877Z"
      fill="currentColor" />
    <path
      d="M49.1414 60.9621C49.061 60.9465 48.9777 60.9633 48.9098 61.0088C48.9098 61.0088 45.066 63.5883 40.8704 66.3642C36.6748 69.1401 32.1029 72.1255 30.7364 72.8896C27.7617 74.5505 25.465 74.6176 23.4391 73.9976C23.4004 73.9857 23.3596 73.9815 23.3192 73.9853C23.2788 73.9891 23.2396 74.0008 23.2038 74.0197C23.1679 74.0386 23.1362 74.0644 23.1103 74.0955C23.0844 74.1266 23.065 74.1626 23.0531 74.2012C23.0412 74.2398 23.037 74.2804 23.0408 74.3207C23.0447 74.3609 23.0564 74.4 23.0754 74.4357C23.0945 74.4714 23.1204 74.5031 23.1517 74.5288C23.183 74.5545 23.219 74.5739 23.2578 74.5857C25.425 75.249 27.9496 75.151 31.0387 73.4263C32.4888 72.6153 37.0143 69.654 41.212 66.8768C45.4097 64.0995 49.2548 61.5194 49.2548 61.5194C49.3227 61.4738 49.3697 61.4033 49.3854 61.3232C49.4011 61.2432 49.3842 61.1603 49.3386 61.0926C49.3159 61.0591 49.2868 61.0303 49.253 61.008C49.2192 60.9856 49.1813 60.9702 49.1414 60.9625V60.9621Z"
      fill="currentColor" />
  </g>
  <defs>
    <clipPath id="clip0_41_130">
      <rect width="96" height="90" fill="white" />
    </clipPath>
  </defs>
</svg>