<svg className="w-full h-auto" viewBox="0 0 96 90" fill="none" xmlns="http://www.w3.org/2000/svg">
  <g clip-path="url(#clip0_41_88)">
    <path fill-rule="evenodd" clip-rule="evenodd"
      d="M40.5161 76.8477C40.5161 77.6139 40.2411 78.3488 39.7517 78.8906C39.2622 79.4324 38.5984 79.7368 37.9062 79.7368C37.214 79.7368 36.5502 79.4324 36.0607 78.8906C35.5713 78.3488 35.2963 77.6139 35.2963 76.8477C35.2963 76.4683 35.3638 76.0926 35.495 75.7421C35.6262 75.3916 35.8184 75.0731 36.0607 74.8048C36.3031 74.5365 36.5908 74.3237 36.9074 74.1785C37.2241 74.0333 37.5635 73.9586 37.9062 73.9586C38.2489 73.9586 38.5883 74.0333 38.905 74.1785C39.2216 74.3237 39.5093 74.5365 39.7517 74.8048C39.994 75.0731 40.1862 75.3916 40.3174 75.7421C40.4486 76.0926 40.5161 76.4683 40.5161 76.8477Z"
      fill="currentColor" />
    <path
      d="M73.7648 85.4301C70.459 85.5419 27.5037 86.4969 19.6785 86.2422C19.5683 86.2386 19.4611 86.2782 19.3794 86.3525C19.2977 86.4268 19.2479 86.5301 19.2406 86.6406C19.2406 86.6406 19.1844 87.4007 19.3891 88.1971C19.4915 88.5954 19.659 89.0155 19.9665 89.3605C20.274 89.7054 20.741 89.9555 21.3102 89.9672C21.8048 89.9773 24.8768 89.9851 29.2798 89.991C33.6828 89.9969 39.3906 90.0001 45.0715 90.0001C50.7524 90.0001 56.4062 89.9969 60.7013 89.9886C62.8489 89.9845 64.6568 89.979 65.9589 89.9724C66.61 89.9691 67.1346 89.9655 67.5128 89.9615C67.8909 89.9575 68.0857 89.9566 68.2079 89.9472C68.546 89.921 69.0536 89.7941 69.7399 89.6107C70.4262 89.4273 71.2558 89.1864 72.0918 88.9325C73.764 88.4249 75.4364 87.877 76.083 87.6124C76.391 87.4863 76.6556 87.3165 76.8356 87.0571C76.9255 86.9274 76.9943 86.7661 76.9983 86.5834C77.0023 86.4007 76.9312 86.211 76.8166 86.0692C76.5872 85.7856 76.2404 85.6448 75.7538 85.545C75.2671 85.4451 74.6237 85.401 73.7648 85.4301ZM73.7933 86.2837C74.6079 86.256 75.1962 86.3018 75.5839 86.3813C75.9389 86.4542 76.0705 86.5557 76.1087 86.5887C76.0606 86.6458 75.9465 86.7459 75.7623 86.8212C75.2176 87.0442 73.5053 87.6109 71.8461 88.1147C71.0164 88.3666 70.1935 88.6057 69.5217 88.7852C68.8498 88.9648 68.2937 89.0838 68.1429 89.0955C68.1428 89.0955 67.879 89.1034 67.5038 89.1074C67.1285 89.1114 66.6048 89.115 65.9546 89.1184C64.6542 89.125 62.847 89.1304 60.6999 89.1346C56.4058 89.1428 50.752 89.146 45.0715 89.146C39.3909 89.146 33.6833 89.1429 29.2808 89.137C24.8783 89.1311 21.7546 89.1219 21.3278 89.1131C20.9756 89.1059 20.7755 88.9879 20.5999 88.7909C20.4244 88.594 20.2932 88.2984 20.2123 87.9836C20.1297 87.6622 20.0999 87.3403 20.0899 87.0957C28.6639 87.3303 70.4372 86.3972 73.7933 86.2837Z"
      fill="currentColor" />
    <path fill-rule="evenodd" clip-rule="evenodd"
      d="M19.6645 86.6692C19.6645 86.6692 19.4762 89.5024 21.3191 89.5402C23.1619 89.578 67.1975 89.5968 68.1753 89.5214C69.153 89.4458 74.7314 87.7045 75.9227 87.217C76.9381 86.8014 77.1261 85.7436 73.7791 85.8571C70.4318 85.9703 27.5735 86.9266 19.6645 86.6692Z"
      fill="currentColor" />
    <path
      d="M56.5218 63.4957C55.8669 63.4957 47.7257 63.59 39.487 63.6845C31.2483 63.7789 22.9244 63.8737 22.1097 63.8737C21.2831 63.8737 20.7083 63.7656 20.1582 64.0591C19.8832 64.2058 19.6702 64.4681 19.5338 64.7916C19.3975 65.115 19.3127 65.5097 19.2382 66.0345C19.152 66.6421 19.126 68.1359 19.113 70.1636C19.1 72.1913 19.1099 74.7006 19.1286 77.1465C19.166 82.0385 19.2396 86.6758 19.2396 86.6758C19.2405 86.7319 19.2523 86.7873 19.2745 86.8387C19.2967 86.8902 19.3287 86.9368 19.3688 86.9758C19.4089 87.0149 19.4563 87.0456 19.5082 87.0662C19.5601 87.0869 19.6156 87.0971 19.6714 87.0962C19.7841 87.0943 19.8914 87.0476 19.9698 86.9662C20.0481 86.8849 20.0912 86.7757 20.0894 86.6625C20.0894 86.6625 20.0162 82.0278 19.9788 77.1403C19.9601 74.6966 19.9502 72.1892 19.9632 70.1689C19.9761 68.1485 20.0221 66.5628 20.0799 66.1551C20.1495 65.6647 20.231 65.3275 20.3167 65.1242C20.4024 64.9209 20.4672 64.8615 20.5572 64.8135C20.7373 64.7174 21.2438 64.7277 22.1097 64.7277C22.9874 64.7277 31.2582 64.633 39.497 64.5385C47.7357 64.444 55.9542 64.3498 56.5218 64.3498C57.062 64.3498 57.2518 64.4417 57.4071 64.6777C57.5625 64.9136 57.6727 65.4247 57.6956 66.2485C57.7375 67.7667 57.0566 83.4565 56.5739 86.1616C56.5641 86.2168 56.5652 86.2734 56.5771 86.3282C56.589 86.383 56.6116 86.4349 56.6435 86.4809C56.6754 86.5269 56.716 86.5662 56.763 86.5964C56.81 86.6267 56.8625 86.6474 56.9175 86.6572C57.0284 86.6772 57.1427 86.6522 57.2352 86.5876C57.3277 86.5229 57.3909 86.4241 57.4109 86.3127C57.9636 83.2147 58.5973 68.1064 58.5454 66.2246C58.5211 65.3484 58.443 64.7023 58.1164 64.2063C57.7899 63.7103 57.2037 63.4957 56.5218 63.4957Z"
      fill="currentColor" />
    <path
      d="M29.5217 21.7369C28.948 21.7004 28.3516 21.7328 27.7354 21.8351C27.6241 21.8536 27.5247 21.9157 27.4591 22.0077C27.3934 22.0998 27.3668 22.2143 27.3852 22.326C27.4036 22.4377 27.4654 22.5376 27.557 22.6035C27.6487 22.6695 27.7627 22.6962 27.8739 22.6777C30.1134 22.3058 31.8943 22.9004 33.3934 24.4849C33.4318 24.5256 33.4779 24.5582 33.5289 24.581C33.58 24.6038 33.635 24.6162 33.6908 24.6176C33.7466 24.6191 33.8022 24.6094 33.8543 24.5893C33.9064 24.5691 33.954 24.5388 33.9945 24.5002C34.0761 24.4222 34.1236 24.3148 34.1264 24.2017C34.1293 24.0885 34.0873 23.9789 34.0097 23.8968C32.7611 22.5769 31.2429 21.8467 29.5217 21.7369Z"
      fill="#4A4947" />
    <path
      d="M39.7484 24.6163C38.8918 24.5884 38.0911 24.8495 37.3742 25.3045C37.2789 25.365 37.2114 25.461 37.1866 25.5715C37.1618 25.6819 37.1816 25.7978 37.2418 25.8935C37.3021 25.9893 37.3977 26.0571 37.5076 26.082C37.6176 26.1069 37.733 26.087 37.8283 26.0265C38.6365 25.5136 39.4488 25.3218 40.4103 25.5709C40.4644 25.5849 40.5207 25.5882 40.5759 25.5804C40.6312 25.5726 40.6845 25.5539 40.7326 25.5255C40.7807 25.497 40.8227 25.4593 40.8564 25.4145C40.89 25.3697 40.9145 25.3187 40.9284 25.2644C40.9424 25.2101 40.9456 25.1536 40.9378 25.098C40.93 25.0424 40.9114 24.9889 40.883 24.9406C40.8547 24.8923 40.8171 24.85 40.7724 24.8163C40.7278 24.7826 40.677 24.758 40.6229 24.744C40.3259 24.6671 40.034 24.6256 39.7484 24.6163Z"
      fill="#4A4947" />
    <path
      d="M27.8246 0.00897178C26.3011 0.0927701 24.8231 0.76857 23.8239 2.09736C22.9155 3.30553 22.4491 5.05779 22.597 7.30214C22.1161 7.14436 21.4486 6.96542 20.5643 6.9142C19.0814 6.82829 17.2086 7.20349 15.9706 8.98019C14.5505 11.0176 13.9486 13.7622 13.7766 15.9364C13.7766 15.9366 13.7766 15.9367 13.7766 15.9369C13.7185 16.6729 13.4852 18.7398 13.5584 21.0378C13.6316 23.3357 13.9914 25.8898 15.2219 27.6957C15.993 28.8274 17.1741 29.1435 18.2067 29.001C19.2393 28.8585 20.1573 28.3312 20.6986 27.7448C20.9658 27.4552 21.1586 27.1632 21.0673 26.7987C21.0216 26.6165 20.8956 26.4753 20.775 26.3932C20.6544 26.311 20.5338 26.2682 20.413 26.2359C19.9296 26.1065 19.3493 26.1303 19.0907 26.0953C18.4877 26.0138 17.9067 25.4721 17.6155 24.7299C17.3244 23.9877 17.3341 23.1001 17.8148 22.386C18.2971 21.6694 18.8667 21.5686 19.466 21.6988C20.0652 21.829 20.6504 22.2851 20.8547 22.6343C21.0622 22.9892 21.1722 23.7054 21.2291 24.4006C21.2575 24.7482 21.2786 25.0911 21.3149 25.399C21.3513 25.7069 21.3861 25.9735 21.527 26.2297C21.7579 26.6493 22.2167 26.9851 22.7573 26.8964C23.298 26.8078 23.7265 26.3044 23.9573 25.4662C24.392 23.8872 25.1972 19.1066 28.5154 17.187C29.8517 18.5089 31.2742 19.3683 32.7871 19.6643C34.3077 19.9618 35.8974 19.6792 37.5142 18.8693C39.1613 20.5423 40.637 21.5385 41.9585 21.9538C43.3397 22.3878 44.5731 22.1747 45.5132 21.4934C47.3934 20.1308 48.1395 17.1382 47.9396 14.0296C47.7397 10.9211 46.562 7.64069 44.2468 5.68034C42.0203 3.79498 38.7233 3.26466 34.5511 5.30384C33.8102 1.81525 30.7179 -0.150165 27.8246 0.00897178ZM27.8711 0.862058C30.4871 0.718176 33.387 2.55645 33.8356 5.9658C33.8446 6.034 33.8699 6.099 33.9093 6.15528C33.9487 6.21157 34.001 6.25745 34.0619 6.28904C34.1227 6.32063 34.1903 6.33699 34.2588 6.33671C34.3273 6.33644 34.3947 6.31956 34.4553 6.28749C38.664 4.05744 41.6368 4.58727 43.6988 6.33324C45.7608 8.07922 46.9024 11.1562 47.0908 14.0849C47.2791 17.0136 46.4826 19.738 45.016 20.8009C44.2826 21.3324 43.3913 21.5092 42.2128 21.1388C41.0343 20.7684 39.5835 19.8161 37.9075 18.0663C37.8432 17.9991 37.7587 17.9549 37.6671 17.9405C37.5754 17.926 37.4816 17.9421 37.3998 17.9862C35.8155 18.8421 34.3501 19.1 32.9493 18.8259C31.5486 18.5519 30.1901 17.7348 28.8651 16.3501C28.8019 16.284 28.7192 16.2402 28.6292 16.225C28.5392 16.2098 28.4468 16.2241 28.3655 16.2657C24.3226 18.3418 23.5239 23.8359 23.1378 25.2384C22.9527 25.9108 22.7188 26.0372 22.6202 26.0533C22.5216 26.0695 22.3642 25.9849 22.2715 25.8165C22.2507 25.7786 22.191 25.5694 22.159 25.2984C22.127 25.0275 22.1058 24.6889 22.0765 24.3305C22.0178 23.6138 21.9507 22.8216 21.5882 22.2016C21.2224 21.576 20.4984 21.0495 19.6458 20.8643C18.7932 20.679 17.768 20.9303 17.1102 21.9075H17.1107C16.4513 22.8871 16.4456 24.0769 16.8246 25.043C17.2036 26.0091 17.9781 26.8066 18.9773 26.9417C19.3717 26.9951 19.8882 26.996 20.1535 27.0575C20.1309 27.0916 20.1266 27.1085 20.0752 27.1643C19.7016 27.569 18.8951 28.0441 18.091 28.1551C17.2868 28.2661 16.5187 28.0867 15.9236 27.2134C14.8657 25.6609 14.479 23.2344 14.4082 21.0106C14.3373 18.7869 14.5624 16.7912 14.6245 16.0041C14.7883 13.9339 15.3912 11.3008 16.6671 9.47012C17.7106 7.97269 19.2036 7.69081 20.5155 7.76681C21.8274 7.8428 22.8788 8.30297 22.8788 8.30297C22.9474 8.33313 23.0228 8.34454 23.0972 8.33606C23.1716 8.32757 23.2425 8.29949 23.3026 8.25465C23.3628 8.20981 23.4101 8.14981 23.4397 8.08071C23.4693 8.01162 23.4803 7.93588 23.4714 7.86117C23.1828 5.43735 23.6612 3.73088 24.5024 2.61207C25.3437 1.49327 26.5631 0.933999 27.8711 0.862058Z"
      fill="#4A4947" />
    <path fill-rule="evenodd" clip-rule="evenodd"
      d="M23.83 24.1946L21.4476 22.9845C21.39 22.7737 21.3167 22.5809 21.2215 22.4179C20.6513 21.4431 18.6027 20.4527 17.4626 22.1466C16.3226 23.8403 17.4318 26.3016 19.0339 26.5183C19.7005 26.6086 21.3014 26.4631 20.3868 27.4546C19.4719 28.4457 16.9389 29.4596 15.5727 27.4546C13.2843 24.0962 14.0804 17.4935 14.2006 15.9704C14.3685 13.8483 14.9709 11.159 16.3189 9.22497C18.6005 5.95083 23.0495 7.91171 23.0495 7.91171C21.8572 -2.10104 33.3022 -1.34485 34.2569 5.9096C51.4964 -3.22496 51.2581 32.6203 37.6013 18.3625C34.3004 20.1457 31.2946 19.5049 28.5588 16.6458C25.4615 18.2363 24.3571 22.0356 23.83 24.1946Z"
      fill="#4A4947" />
    <path
      d="M21.315 22.5791C21.2079 22.6144 21.1191 22.691 21.0682 22.7921C21.043 22.8421 21.0279 22.8967 21.0237 22.9526C21.0195 23.0085 21.0262 23.0647 21.0436 23.118C21.0611 23.1713 21.0887 23.2206 21.1251 23.2631C21.1615 23.3057 21.2058 23.3406 21.2557 23.3659L26.9621 26.2635C27.0032 26.2844 27.0474 26.2984 27.093 26.305L41.9201 28.452C41.9754 28.46 42.0317 28.4571 42.0858 28.4432C42.1399 28.4294 42.1908 28.405 42.2355 28.3714C42.2802 28.3378 42.3179 28.2957 42.3464 28.2474C42.3749 28.1992 42.3937 28.1458 42.4017 28.0903C42.4097 28.0348 42.4067 27.9782 42.3929 27.9239C42.3791 27.8695 42.3548 27.8184 42.3214 27.7735C42.2879 27.7286 42.246 27.6907 42.198 27.6621C42.15 27.6334 42.0968 27.6146 42.0415 27.6066L27.2833 25.47L21.6395 22.6034C21.5896 22.5781 21.5353 22.563 21.4796 22.5588C21.424 22.5546 21.368 22.5615 21.315 22.5791Z"
      fill="#4A4947" />
    <path
      d="M27.1638 25.4459C27.108 25.4424 27.0522 25.4501 26.9994 25.4684C26.9466 25.4866 26.8979 25.5152 26.8561 25.5523C26.8143 25.5895 26.7802 25.6346 26.7557 25.685C26.7312 25.7354 26.7169 25.7902 26.7135 25.8462C26.5867 27.9511 26.8631 29.4563 27.4314 30.4691C27.9996 31.4818 28.9177 31.9763 29.8531 31.9155C31.7238 31.7939 33.5463 29.7949 34.119 26.9147C34.13 26.8596 34.13 26.803 34.1192 26.7479C34.1084 26.6928 34.0868 26.6404 34.0558 26.5937C34.0247 26.547 33.9849 26.5069 33.9384 26.4757C33.8919 26.4445 33.8398 26.4228 33.785 26.4119C33.7302 26.4009 33.6738 26.4009 33.619 26.4118C33.5642 26.4228 33.5121 26.4444 33.4657 26.4756C33.4193 26.5067 33.3794 26.5468 33.3484 26.5934C33.3173 26.6401 33.2958 26.6924 33.2849 26.7474C32.7671 29.3516 31.0603 30.9813 29.798 31.0634C29.1669 31.1044 28.6177 30.844 28.172 30.0497C27.7263 29.2554 27.4417 27.9012 27.5623 25.8977C27.5691 25.7847 27.5309 25.6736 27.4562 25.5889C27.3814 25.5042 27.2763 25.4527 27.1638 25.4459Z"
      fill="#4A4947" />
    <path
      d="M36.0257 26.7364C35.9149 26.7158 35.8005 26.7402 35.7076 26.8043C35.6147 26.8683 35.551 26.9668 35.5304 27.0781C35.1876 28.9358 35.2994 30.1993 35.8008 31.0295C36.3022 31.8596 37.2223 32.1269 38.0982 31.9745C38.9741 31.8221 39.8663 31.3197 40.637 30.6401C41.4078 29.9605 42.0566 29.0993 42.3817 28.1709C42.419 28.0641 42.4126 27.9468 42.3638 27.8447C42.3151 27.7427 42.2279 27.6642 42.1216 27.6266C42.0153 27.5892 41.8985 27.5956 41.7969 27.6446C41.6953 27.6935 41.6172 27.781 41.5798 27.8878C41.3193 28.6317 40.7545 29.4001 40.0762 29.9981C39.398 30.5962 38.6058 31.0194 37.9535 31.1329C37.3012 31.2464 36.8495 31.1196 36.5277 30.5867C36.2058 30.0538 36.0432 28.9854 36.3664 27.2339C36.3869 27.1226 36.3625 27.0076 36.2986 26.9143C36.2347 26.821 36.1366 26.757 36.0257 26.7364Z"
      fill="#4A4947" />
    <path
      d="M34.9417 26.5838C34.8883 26.5673 34.8322 26.5616 34.7766 26.5668C34.721 26.5721 34.667 26.5883 34.6177 26.6146C34.5683 26.6408 34.5246 26.6766 34.489 26.7198C34.4534 26.763 34.4267 26.8128 34.4103 26.8665C33.4639 29.9591 33.8347 32.4691 35.4456 34.2716C35.5208 34.3559 35.6263 34.4067 35.7389 34.4129C35.8514 34.4191 35.9618 34.3801 36.0458 34.3045C36.0873 34.267 36.1212 34.2217 36.1453 34.1711C36.1694 34.1205 36.1834 34.0656 36.1864 34.0095C36.1894 33.9535 36.1813 33.8974 36.1628 33.8445C36.1442 33.7916 36.1154 33.7429 36.078 33.7012C34.68 32.1368 34.3309 30.033 35.223 27.1176C35.2395 27.064 35.2452 27.0077 35.24 26.9518C35.2347 26.896 35.2186 26.8418 35.1924 26.7922C35.1663 26.7426 35.1307 26.6987 35.0877 26.663C35.0447 26.6272 34.995 26.6003 34.9417 26.5838Z"
      fill="#4A4947" />
    <path fill-rule="evenodd" clip-rule="evenodd"
      d="M32.1043 28.4586C32.0592 28.5788 31.9998 28.6923 31.9295 28.7924C31.8591 28.8926 31.7791 28.9776 31.6941 29.0425C31.6091 29.1074 31.5207 29.151 31.434 29.1707C31.3473 29.1905 31.264 29.186 31.1888 29.1576C31.1136 29.1292 31.048 29.0773 30.9958 29.0051C30.9436 28.9328 30.9058 28.8415 30.8845 28.7364C30.8631 28.6313 30.8588 28.5145 30.8716 28.3925C30.8845 28.2706 30.9143 28.146 30.9593 28.0258C31.0503 27.783 31.1978 27.5729 31.3695 27.4419C31.5412 27.3108 31.723 27.2694 31.8748 27.3268C32.0266 27.3842 32.1361 27.5357 32.1791 27.7479C32.2222 27.9602 32.1953 28.2158 32.1043 28.4586Z"
      fill="#4A4947" />
    <path fill-rule="evenodd" clip-rule="evenodd"
      d="M38.1428 29.5912C38.0978 29.7114 38.0384 29.8248 37.968 29.925C37.8976 30.0252 37.8176 30.1102 37.7326 30.1751C37.6476 30.24 37.5592 30.2836 37.4725 30.3033C37.3858 30.323 37.3025 30.3186 37.2273 30.2902C37.1521 30.2617 37.0866 30.2099 37.0343 30.1377C36.9821 30.0654 36.9443 29.9741 36.923 29.869C36.9017 29.7639 36.8973 29.647 36.9101 29.5251C36.923 29.4032 36.9528 29.2785 36.9978 29.1583C37.0888 28.9155 37.2363 28.7055 37.408 28.5744C37.5797 28.4433 37.7615 28.4019 37.9133 28.4593C38.0651 28.5167 38.1746 28.6682 38.2177 28.8805C38.2607 29.0928 38.2338 29.3484 38.1428 29.5912Z"
      fill="#4A4947" />
    <path
      d="M38.0399 32.666C37.9358 32.6226 37.8189 32.6224 37.7147 32.6656C37.6105 32.7087 37.5276 32.7917 37.4843 32.8962C35.6753 37.2669 31.7548 40.5257 27.8787 41.164C25.9407 41.4831 24.0227 41.1632 22.3275 40.024C20.6323 38.8846 19.1463 36.9093 18.1441 33.8532C18.1267 33.7999 18.0989 33.7505 18.0625 33.708C18.026 33.6655 17.9816 33.6306 17.9317 33.6053C17.8818 33.58 17.8275 33.5649 17.7718 33.5607C17.7161 33.5565 17.6601 33.5634 17.607 33.581C17.4999 33.6164 17.4112 33.6931 17.3604 33.7942C17.3096 33.8953 17.3009 34.0125 17.3361 34.1201C18.3826 37.3111 19.9721 39.469 21.8544 40.7341C23.7367 41.9992 25.8982 42.3554 28.0163 42.0066C32.2527 41.309 36.352 37.8569 38.2695 33.2241C38.3128 33.1195 38.3128 33.0019 38.2698 32.8973C38.2267 32.7926 38.144 32.7094 38.0399 32.666Z"
      fill="#4A4947" />
    <path
      d="M28.2037 34.9703C28.1028 34.9197 27.9861 34.9114 27.8791 34.9472C27.7722 34.9831 27.6838 35.0601 27.6334 35.1614C27.6084 35.2116 27.5936 35.2663 27.5897 35.3222C27.5858 35.3782 27.5929 35.4344 27.6106 35.4876C27.6283 35.5408 27.6563 35.5899 27.6929 35.6323C27.7295 35.6746 27.7741 35.7093 27.8241 35.7343C27.8241 35.7343 29.1356 36.3962 30.8564 36.4291C30.9691 36.4313 31.078 36.3885 31.1592 36.31C31.2405 36.2315 31.2874 36.1239 31.2896 36.0107C31.2907 35.9546 31.2807 35.8989 31.2603 35.8467C31.24 35.7945 31.2095 35.7468 31.1708 35.7064C31.1321 35.666 31.0858 35.6336 31.0346 35.6112C30.9835 35.5887 30.9284 35.5766 30.8725 35.5756C29.3595 35.5466 28.2037 34.9703 28.2037 34.9703Z"
      fill="#4A4947" />
    <path fill-rule="evenodd" clip-rule="evenodd"
      d="M5.00075 59.7654C3.50554 61.7248 1.02745 67.4186 0.199557 69.6815C-0.62858 71.9448 -0.416749 72.3315 0.295755 72.5055C1.75672 72.8625 9.34598 75.5229 10.5975 75.8904C11.8491 76.2579 11.8136 76.6554 10.9056 77.1476C8.20277 78.6131 6.33686 81.3836 5.01558 83.1598C2.45805 86.5976 3.96248 88.1464 2.9847 88.1085C2.00668 88.0707 -3.85149 87.3204 -6.68085 86.7108C-14.1999 85.0911 -14.7574 79.5969 -14.2709 74.9151C-13.7384 69.7909 -8.00287 59.4175 -4.40561 53.6749C2.55205 42.5685 9.81095 40.3312 12.3877 39.6748C15.0448 38.9981 15.9577 39.402 16.1666 40.6662C17.3409 47.7725 21.4379 46.0818 22.5209 45.3807C23.8064 44.5486 23.9962 43.5292 25.7163 43.5553C36.6726 43.7219 38.5195 56.7131 39.0248 59.4934C39.5304 62.2739 39.0732 62.6606 38.2377 62.7331C36.983 62.8422 25.1263 62.8841 21.8917 62.9219C18.6574 62.9598 18.6574 63.3375 18.4317 64.622C18.0226 66.9503 18.2152 77.7532 18.2152 77.7532C17.4449 77.995 15.8321 77.1488 13.5938 75.9158C11.3552 74.6828 6.5414 73.2563 3.653 72.5309C0.764605 71.8057 0.812698 71.2979 1.36633 68.9285C1.91996 66.5592 5.00075 59.7654 5.00075 59.7654ZM20.6724 49.0826C19.9284 49.0826 19.3244 49.727 19.3244 50.5211C19.3244 51.3151 19.9284 51.9595 20.6724 51.9595C21.4163 51.9595 22.0202 51.3151 22.0202 50.5211C22.0202 49.727 21.4163 49.0826 20.6724 49.0826ZM20.6724 57.185C20.1285 57.185 19.6869 57.6562 19.6869 58.2367C19.6869 58.8172 20.1285 59.2884 20.6724 59.2884C21.2164 59.2884 21.6577 58.8172 21.6577 58.2367C21.6577 57.6562 21.2164 57.185 20.6724 57.185Z"
      fill="#4A4947" />
    <path
      d="M8.79657 76.8164C8.69432 76.7687 8.57739 76.7637 8.47151 76.8026C8.36563 76.8414 8.27946 76.921 8.23195 77.0237C8.18446 77.1264 8.17952 77.2438 8.21822 77.3502C8.25693 77.4565 8.33611 77.5431 8.43834 77.5908C8.43834 77.5908 10.3247 78.4712 12.4827 79.6463C14.6407 80.8215 17.0846 82.3253 18.0876 83.4123C18.1642 83.4953 18.2705 83.5444 18.3832 83.5486C18.4958 83.5529 18.6056 83.5121 18.6882 83.4351C18.7709 83.3582 18.8197 83.2513 18.824 83.1382C18.8283 83.0251 18.7876 82.9148 18.711 82.8318C17.5189 81.5399 15.072 80.0851 12.8879 78.8957C10.7037 77.7063 8.79657 76.8164 8.79657 76.8164Z"
      fill="#4A4947" />
    <path
      d="M16.3847 83.0889C16.3319 83.1071 16.2831 83.1357 16.2413 83.1729C16.1995 83.2101 16.1653 83.2552 16.1409 83.3057C16.0916 83.4075 16.0846 83.5247 16.1213 83.6317C16.1581 83.7386 16.2356 83.8266 16.3368 83.8762C16.3368 83.8762 17.7905 84.6163 18.4136 85.2525C18.4527 85.2926 18.4993 85.3245 18.5507 85.3465C18.6022 85.3684 18.6574 85.38 18.7133 85.3805C18.7692 85.3809 18.8246 85.3704 18.8764 85.3493C18.9282 85.3283 18.9753 85.2972 19.0152 85.2578C19.0955 85.1783 19.1411 85.0701 19.142 84.9569C19.1429 84.8436 19.099 84.7347 19.0199 84.654C18.1883 83.8047 16.7093 83.1089 16.7093 83.1089C16.608 83.0593 16.4913 83.0521 16.3847 83.0889Z"
      fill="#4A4947" />
    <path
      d="M15.2645 84.5326C15.1534 84.5133 15.0392 84.5393 14.9471 84.6046C14.855 84.6699 14.7925 84.7693 14.7734 84.8809C14.7543 84.9925 14.78 85.1071 14.845 85.1996C14.9099 85.2921 15.0088 85.3549 15.1198 85.3742C15.1198 85.3742 16.7134 85.6547 18.2029 86.4337C18.2524 86.4596 18.3065 86.4755 18.3622 86.4804C18.4178 86.4853 18.4739 86.4791 18.5271 86.4623C18.5804 86.4454 18.6298 86.4182 18.6726 86.3821C18.7154 86.346 18.7507 86.3018 18.7765 86.2521C18.8285 86.1516 18.8386 86.0346 18.8047 85.9266C18.7709 85.8187 18.6957 85.7287 18.5957 85.6764C16.9611 84.8215 15.2645 84.5326 15.2645 84.5326Z"
      fill="#4A4947" />
    <path
      d="M3.24435 82.4872C3.1998 82.521 3.1623 82.5633 3.13402 82.6116C3.10574 82.66 3.08722 82.7134 3.07951 82.769C3.0718 82.8245 3.07506 82.881 3.08909 82.9353C3.10313 82.9896 3.12767 83.0406 3.16132 83.0853C3.16132 83.0853 3.71072 83.8155 4.3731 84.6352C5.03548 85.4548 5.7751 86.3435 6.31177 86.766C6.75716 87.1167 7.11581 87.3928 7.69104 87.539C8.26628 87.6852 9.01159 87.7156 10.3566 87.7034C13.0304 87.6792 16.1468 87.6336 18.6612 87.9655C18.7166 87.9729 18.7729 87.9692 18.8269 87.9547C18.8808 87.9402 18.9314 87.9151 18.9758 87.881C19.0201 87.8468 19.0573 87.8042 19.0852 87.7556C19.1131 87.7069 19.1312 87.6533 19.1385 87.5976C19.1458 87.542 19.142 87.4855 19.1276 87.4313C19.1131 87.3772 19.0881 87.3264 19.0541 87.2819C19.0201 87.2374 18.9777 87.2001 18.9293 87.1721C18.881 87.1441 18.8276 87.1259 18.7722 87.1186C16.1589 86.7737 13.0186 86.8252 10.349 86.8494C9.02206 86.8614 8.32343 86.8188 7.89981 86.7112C7.47619 86.6035 7.28124 86.4445 6.83606 86.094C6.48216 85.8154 5.68517 84.9029 5.03356 84.0966C4.38195 83.2903 3.8398 82.5701 3.8398 82.5701C3.77178 82.4798 3.67084 82.4204 3.55917 82.4048C3.4475 82.3893 3.33426 82.4189 3.24435 82.4872Z"
      fill="#4A4947" />
    <path
      d="M65.8465 27.711C65.7379 27.6808 65.6219 27.6952 65.5239 27.751C65.4752 27.7786 65.4325 27.8156 65.3981 27.8599C65.3638 27.9041 65.3384 27.9547 65.3235 28.0088C65.3086 28.0629 65.3045 28.1194 65.3113 28.1751C65.3182 28.2308 65.3359 28.2846 65.3635 28.3334C66.6159 30.5505 66.5731 32.6549 65.1808 34.8774C65.1511 34.9249 65.1309 34.9778 65.1216 35.0331C65.1122 35.0884 65.1138 35.145 65.1262 35.1997C65.1386 35.2544 65.1616 35.3062 65.194 35.3519C65.2263 35.3977 65.2673 35.4366 65.3146 35.4664C65.41 35.5267 65.5253 35.5464 65.6352 35.5213C65.7451 35.4962 65.8405 35.4283 65.9006 35.3325C67.4244 32.9002 67.4802 30.3493 66.1032 27.9116C66.0475 27.8132 65.9552 27.741 65.8465 27.711Z"
      fill="#4A4947" />
    <path
      d="M64.3277 29.5491C64.2192 29.5798 64.1274 29.6526 64.0723 29.7513C64.0173 29.8501 64.0035 29.9668 64.034 30.0757C64.1772 30.5852 64.1753 30.9827 64.1061 31.2395C64.037 31.4964 63.925 31.6056 63.7963 31.6565C63.6676 31.7075 63.4742 31.7082 63.2018 31.5636C62.9294 31.419 62.5971 31.126 62.2718 30.6476C62.2083 30.5541 62.1103 30.4897 61.9996 30.4687C61.8888 30.4477 61.7742 30.4718 61.6811 30.5356C61.588 30.5995 61.524 30.6978 61.503 30.8091C61.4821 30.9204 61.5061 31.0354 61.5696 31.129C61.954 31.6942 62.3714 32.0892 62.8042 32.319C63.237 32.5488 63.7042 32.6108 64.108 32.451C64.5119 32.2912 64.8044 31.9176 64.9269 31.4626C65.0495 31.0075 65.0266 30.4632 64.8524 29.8436C64.8217 29.7347 64.7492 29.6424 64.6508 29.5872C64.5524 29.532 64.4362 29.5183 64.3277 29.5491Z"
      fill="#4A4947" />
    <path
      d="M71.1467 26.5696C71.0929 26.5844 71.0425 26.6098 70.9984 26.6443C70.9544 26.6787 70.9175 26.7216 70.8899 26.7704C70.8623 26.8191 70.8446 26.8729 70.8377 26.9285C70.8308 26.9842 70.8349 27.0407 70.8497 27.0948C71.1415 28.1593 70.8473 28.9182 70.5176 29.1469C70.3528 29.2613 70.1826 29.2937 69.9231 29.1951C69.6636 29.0964 69.3218 28.8344 68.9718 28.3248C68.9078 28.2316 68.8096 28.1678 68.6987 28.1473C68.5878 28.1268 68.4734 28.1514 68.3806 28.2157C68.3346 28.2475 68.2953 28.2882 68.2649 28.3353C68.2346 28.3824 68.2137 28.435 68.2037 28.4902C68.1936 28.5454 68.1944 28.6021 68.2061 28.6569C68.2178 28.7118 68.2402 28.7638 68.272 28.81C68.6894 29.4178 69.1421 29.8112 69.6223 29.9938C70.1025 30.1764 70.6169 30.1156 71.0006 29.8494C71.768 29.317 72.0253 28.1657 71.6696 26.8679C71.6548 26.8138 71.6295 26.7632 71.5952 26.7189C71.5609 26.6747 71.5183 26.6376 71.4697 26.6099C71.4212 26.5822 71.3676 26.5644 71.3122 26.5575C71.2568 26.5505 71.2006 26.5547 71.1467 26.5696Z"
      fill="#4A4947" />
    <path
      d="M73.0038 35.3799C72.9078 35.3206 72.7923 35.3021 72.6827 35.3282C72.5731 35.3544 72.4783 35.4232 72.4192 35.5196C71.755 36.6023 71.0517 37.4625 70.324 37.9149C69.5962 38.3673 68.8726 38.4661 67.9132 38.0245C67.8625 38.0011 67.8076 37.988 67.7518 37.9859C67.696 37.9838 67.6404 37.9928 67.588 38.0123C67.5357 38.0318 67.4877 38.0615 67.4468 38.0997C67.4058 38.1378 67.3728 38.1837 67.3495 38.2347C67.3263 38.2856 67.3132 38.3407 67.3111 38.3968C67.3091 38.4528 67.318 38.5087 67.3374 38.5613C67.3569 38.6139 67.3864 38.6621 67.4244 38.7032C67.4624 38.7443 67.508 38.7775 67.5588 38.8008C68.7315 39.3406 69.8501 39.2139 70.7714 38.6412C71.6927 38.0685 72.4457 37.1038 73.1428 35.9675C73.1721 35.9198 73.1917 35.8667 73.2006 35.8113C73.2094 35.756 73.2074 35.6994 73.1945 35.6448C73.1815 35.5902 73.1581 35.5388 73.1253 35.4933C73.0926 35.4479 73.0513 35.4093 73.0038 35.3799Z"
      fill="#4A4947" />
    <path
      d="M78.1503 37.0425C78.0444 37.0037 77.9274 37.0087 77.8252 37.0564C77.723 37.1041 77.6438 37.1907 77.6051 37.297C77.1837 38.4554 76.2288 39.7118 75.0605 40.5712C73.8923 41.4305 72.5376 41.8864 71.288 41.5968C69.7058 41.23 68.1752 41.9292 66.7863 43.047C65.3974 44.1648 64.1033 45.7234 62.9147 47.2467C58.3165 53.1395 55.439 61.5399 55.439 61.5399C55.4207 61.5929 55.413 61.649 55.4163 61.705C55.4197 61.761 55.4339 61.8158 55.4583 61.8663C55.4828 61.9167 55.5168 61.9618 55.5586 61.9991C55.6004 62.0363 55.6491 62.0649 55.7018 62.0832C55.7546 62.1016 55.8105 62.1093 55.8662 62.106C55.922 62.1026 55.9765 62.0883 56.0267 62.0638C56.077 62.0393 56.1219 62.005 56.159 61.9631C56.196 61.9211 56.2245 61.8722 56.2427 61.8192C56.2427 61.8192 59.1222 53.4914 63.5837 47.7738C64.7605 46.2657 66.0302 44.7495 67.3177 43.7133C68.6052 42.6771 69.8631 42.1429 71.0968 42.4289C72.6635 42.792 74.258 42.2202 75.563 41.2603C76.868 40.3004 77.9104 38.946 78.4036 37.5901C78.4423 37.4838 78.4373 37.3663 78.3898 37.2636C78.3423 37.1609 78.2561 37.0814 78.1503 37.0425Z"
      fill="#4A4947" />
    <path
      d="M70.891 45.1903C70.8353 45.1944 70.7809 45.2096 70.7311 45.2349C70.6812 45.2601 70.6367 45.295 70.6003 45.3376C70.5639 45.3801 70.5361 45.4294 70.5187 45.4828C70.5012 45.5361 70.4944 45.5923 70.4986 45.6483C71.3393 56.9045 70.9182 67.4773 66.3067 75.8675C66.2797 75.9166 66.2625 75.9706 66.2563 76.0263C66.25 76.0821 66.2548 76.1385 66.2702 76.1924C66.2857 76.2463 66.3116 76.2966 66.3464 76.3405C66.3812 76.3844 66.4243 76.4209 66.4732 76.448C66.5221 76.4751 66.5759 76.4923 66.6314 76.4986C66.6869 76.5048 66.7431 76.5 66.7968 76.4844C66.8505 76.4689 66.9006 76.4428 66.9442 76.4078C66.9878 76.3727 67.0242 76.3294 67.0511 76.2802C71.7977 67.6444 72.1917 56.9011 71.3465 45.5844C71.3381 45.4715 71.2854 45.3665 71.2 45.2926C71.1146 45.2187 71.0034 45.1819 70.891 45.1903Z"
      fill="#4A4947" />
    <path
      d="M87.8641 40.2071C87.2334 40.2051 86.6076 40.3118 85.961 40.5097C84.5692 40.9357 83.3658 42.1508 82.1349 43.4006C80.9041 44.6505 79.6528 45.9507 78.3601 46.6243C76.3049 47.6951 75.0275 47.2608 74.1582 46.6024C73.289 45.9439 72.8923 45.0225 72.8923 45.0225C72.8706 44.9708 72.8389 44.9239 72.7991 44.8846C72.7593 44.8452 72.7122 44.8141 72.6604 44.793C72.6086 44.7719 72.5532 44.7613 72.4974 44.7618C72.4415 44.7622 72.3863 44.7737 72.3348 44.7956C72.2834 44.8175 72.2368 44.8494 72.1977 44.8894C72.1585 44.9294 72.1276 44.9767 72.1067 45.0287C72.0857 45.0807 72.0752 45.1364 72.0757 45.1924C72.0762 45.2485 72.0877 45.304 72.1095 45.3556C72.1095 45.3556 72.5722 46.4708 73.6463 47.2843C74.7204 48.0979 76.4702 48.5707 78.7515 47.382C80.2355 46.6088 81.5161 45.2439 82.7394 44.0016C83.9627 42.7594 85.1358 41.655 86.2087 41.3266C87.3804 40.968 88.3351 40.9431 89.5143 41.3623C90.6936 41.7815 92.097 42.6761 94.0146 44.187C98.1154 47.4179 105.434 52.7688 109.355 66.5207C110.353 70.023 110.041 73.9033 109.103 77.2205C108.165 80.5378 106.577 83.294 105.195 84.4965C105.195 84.4965 105.195 84.4965 105.195 84.4965C104.308 85.2688 102.618 86.9049 99.414 87.8769C96.2103 88.849 91.5024 89.1392 84.6558 87.0439C84.6341 87.0373 84.6194 87.0211 84.6145 86.9991C84.6097 86.9772 84.616 86.9563 84.633 86.9409C84.6346 86.9395 84.6362 86.9381 84.6377 86.9366C85.3069 86.3139 86.2776 85.205 86.816 83.6158C87.3544 82.0267 87.4406 79.9582 86.3757 77.5165C86.3691 77.5013 86.369 77.485 86.3757 77.4693C86.3816 77.4562 86.3927 77.4483 86.4046 77.4426C87.7405 77.0992 91.8131 76.3564 98.9951 77.6084C99.0501 77.618 99.1065 77.6166 99.1609 77.6043C99.2154 77.592 99.267 77.5691 99.3126 77.5368C99.3582 77.5045 99.3971 77.4634 99.427 77.416C99.4568 77.3686 99.4771 77.3158 99.4866 77.2605C99.4962 77.2053 99.4948 77.1487 99.4825 77.0939C99.4703 77.0392 99.4474 76.9874 99.4153 76.9416C99.3831 76.8957 99.3423 76.8567 99.2951 76.8267C99.2479 76.7967 99.1953 76.7764 99.1403 76.7668C91.8179 75.4903 87.6031 76.2479 86.1665 76.62C86.1561 76.6228 86.1458 76.626 86.1356 76.6295C85.8951 76.7118 85.7 76.8919 85.5976 77.1247C85.5974 77.125 85.5973 77.1254 85.5971 77.1257C85.4952 77.3587 85.495 77.6251 85.5966 77.8587C86.5854 80.1256 86.4872 81.9345 86.0108 83.3408C85.5344 84.7471 84.6595 85.7519 84.0598 86.3099L84.0646 86.3057C83.8211 86.5255 83.7132 86.8623 83.7841 87.184C83.8551 87.5055 84.0945 87.7649 84.4081 87.8607C91.38 89.9944 96.2793 89.7205 99.6598 88.6948C103.04 87.6691 104.911 85.8736 105.752 85.1418C107.365 83.7381 108.949 80.891 109.921 77.4541C110.893 74.0171 111.229 69.9926 110.172 66.2858C106.19 52.3181 98.6135 46.725 94.5393 43.5151C92.5923 41.981 91.1325 41.0318 89.798 40.5574C89.1308 40.3202 88.4949 40.2091 87.8641 40.2071Z"
      fill="#4A4947" />
    <path
      d="M73.7862 77.6912C73.7862 77.6912 69.2801 77.3953 66.5828 81.0015C65.9926 81.7904 65.4834 82.6504 65.2173 83.4164C65.0843 83.7994 65.0058 84.1598 65.0408 84.5111C65.0758 84.8624 65.2841 85.2322 65.6353 85.3918C65.6355 85.3918 65.6356 85.3918 65.6358 85.3918C66.1253 85.614 66.6826 85.485 67.2309 85.1745C67.7793 84.864 68.3756 84.3592 69.0743 83.6666C71.9692 80.797 74.3845 79.9601 76.3535 80.0755C76.4093 80.0788 76.4652 80.071 76.5179 80.0526C76.5707 80.0342 76.6193 80.0055 76.6611 79.9682C76.7028 79.9309 76.7368 79.8857 76.7611 79.8352C76.7854 79.7846 76.7996 79.7298 76.8028 79.6738C76.8093 79.5607 76.7708 79.4497 76.6958 79.3651C76.6208 79.2806 76.5154 79.2294 76.4029 79.2229C74.1513 79.0909 71.4831 80.0791 68.4774 83.0585C67.8057 83.7243 67.2433 84.1871 66.8134 84.4306C66.3835 84.674 66.1436 84.6851 65.986 84.6136C65.9108 84.5794 65.9016 84.5748 65.8868 84.4263C65.872 84.2775 65.9111 84.012 66.0201 83.6981C66.2382 83.0702 66.7116 82.2515 67.2627 81.5148C69.6727 78.2927 73.7326 78.5433 73.7326 78.5433C73.7883 78.5469 73.8442 78.5394 73.897 78.5212C73.9499 78.5031 73.9986 78.4746 74.0405 78.4375C74.0824 78.4005 74.1167 78.3554 74.1412 78.3051C74.1658 78.2547 74.1803 78.1999 74.1838 78.1439C74.1908 78.0309 74.1528 77.9198 74.0783 77.8349C74.0037 77.75 73.8986 77.6983 73.7862 77.6912Z"
      fill="#4A4947" />
    <path
      d="M76.5167 81.6394C75.577 81.6693 74.4462 81.9506 73.3961 82.3619C72.346 82.7733 71.3866 83.3002 70.7984 83.927C70.3319 84.4241 69.9355 84.643 69.6521 84.7072C69.3687 84.7714 69.1919 84.7105 69.0343 84.5819C69.0558 84.5994 69.0256 84.5762 69.0106 84.4799C68.9956 84.3835 68.9966 84.2382 69.0116 84.0957C69.0415 83.8107 69.116 83.5491 69.116 83.5491C69.1474 83.4403 69.1345 83.3235 69.0801 83.2243C69.0257 83.1251 68.9343 83.0516 68.8261 83.0201C68.7178 82.9886 68.6015 83.0015 68.5027 83.0561C68.4039 83.1107 68.3308 83.2025 68.2994 83.3113C68.2994 83.3113 68.2055 83.6301 68.1661 84.0061C68.1464 84.1942 68.1374 84.4 68.1704 84.6119C68.2033 84.8238 68.2792 85.0664 68.4977 85.2448C68.8406 85.5246 69.3294 85.6556 69.8391 85.5403C70.3487 85.4249 70.8731 85.0925 71.4171 84.5128C71.8395 84.0625 72.7282 83.5404 73.705 83.1578C74.6818 82.7752 75.7564 82.518 76.5433 82.493C76.5434 82.493 76.5436 82.493 76.5438 82.493C77.2683 82.4699 77.6557 82.5727 78.0801 82.8328C78.5044 83.0929 78.9716 83.5502 79.6909 84.223C80.5162 84.9948 81.7081 85.2999 82.9528 85.2267C84.1975 85.1534 85.5128 84.7017 86.639 83.8899C86.7306 83.8239 86.7923 83.724 86.8106 83.6123C86.829 83.5006 86.8024 83.3862 86.7367 83.2941C86.7042 83.2485 86.663 83.2098 86.6156 83.1801C86.5681 83.1505 86.5153 83.1306 86.4602 83.1215C86.4051 83.1123 86.3487 83.1142 86.2943 83.127C86.2399 83.1398 86.1885 83.1632 86.1431 83.1959C85.1517 83.9106 83.9768 84.3109 82.903 84.3741C81.8292 84.4373 80.8745 84.1633 80.2702 83.5982C79.5601 82.934 79.0781 82.4444 78.5227 82.1041C77.9674 81.7638 77.345 81.613 76.5167 81.6394Z"
      fill="#4A4947" />
    <path
      d="M75.2721 74.615C73.0684 74.6395 70.8057 75.0652 68.966 75.9537C67.4009 76.7097 65.8889 77.8606 64.7105 79.0501C63.5322 80.2395 62.674 81.4302 62.4748 82.4662C62.292 83.417 62.4971 84.2733 63.1059 84.7586C63.7146 85.2439 64.6154 85.2844 65.6172 84.9097C65.7229 84.8702 65.8085 84.7901 65.8554 84.6872C65.9023 84.5842 65.9066 84.4668 65.8673 84.3607C65.8478 84.3081 65.8182 84.2599 65.7802 84.2188C65.7421 84.1777 65.6964 84.1445 65.6456 84.1212C65.5948 84.0979 65.5399 84.0848 65.4841 84.0828C65.4282 84.0808 65.3726 84.0899 65.3202 84.1095C64.4889 84.4204 63.9376 84.3312 63.6344 84.0895C63.3313 83.8478 63.1649 83.3798 63.3094 82.6283C63.4375 81.9623 64.1992 80.7774 65.3136 79.6525C66.428 78.5276 67.8814 77.4251 69.3342 76.7234C72.7026 75.0965 77.9982 75.1772 80.8775 76.4641C83.9553 77.8398 85.9562 78.2213 85.9562 78.2213C86.0111 78.2317 86.0675 78.2312 86.1222 78.2197C86.1768 78.2082 86.2287 78.186 86.2749 78.1544C86.321 78.1227 86.3605 78.0822 86.391 78.0353C86.4216 77.9883 86.4426 77.9357 86.4529 77.8806C86.4738 77.7693 86.4497 77.6542 86.3861 77.5607C86.3225 77.4672 86.2245 77.403 86.1137 77.382C86.1137 77.382 84.2304 77.028 81.2234 75.684C79.6206 74.9676 77.4758 74.5905 75.2721 74.615Z"
      fill="#4A4947" />
    <path
      d="M92.1199 53.3845C92.0657 53.3978 92.0146 53.4217 91.9695 53.4548C91.9245 53.488 91.8864 53.5297 91.8574 53.5776C91.8284 53.6255 91.8091 53.6787 91.8006 53.7342C91.7921 53.7896 91.7945 53.8462 91.8077 53.9006C92.6454 57.3491 92.8483 62.1974 93.3293 66.6464C93.8103 71.0954 94.5162 75.1754 96.6862 77.1794C96.7692 77.2561 96.8791 77.2965 96.9917 77.2917C97.1044 77.287 97.2105 77.2375 97.2869 77.1541C97.3246 77.1128 97.3539 77.0645 97.373 77.0118C97.3922 76.9591 97.4008 76.9032 97.3984 76.8471C97.3961 76.7911 97.3827 76.7361 97.3592 76.6853C97.3356 76.6344 97.3024 76.5887 97.2612 76.5508C95.4664 74.8932 94.6513 70.9614 94.1748 66.554C93.6983 62.1465 93.507 57.2927 92.6338 53.6981C92.6205 53.6436 92.5967 53.5923 92.5638 53.547C92.5308 53.5018 92.4892 53.4635 92.4415 53.4344C92.3938 53.4053 92.3408 53.3859 92.2857 53.3773C92.2305 53.3688 92.1742 53.3712 92.1199 53.3845Z"
      fill="#4A4947" />
    <path
      d="M68.1698 20.9888C68.0807 20.9989 67.997 21.0371 67.9308 21.0979C67.8646 21.1587 67.8192 21.2389 67.8011 21.3272C67.8011 21.3272 67.4384 23.0979 66.2435 24.9259C65.0486 26.7538 63.0727 28.5998 59.7542 28.8081C59.6938 28.812 59.635 28.8287 59.5816 28.8572C59.5282 28.8857 59.4814 28.9253 59.4445 28.9733C59.4075 29.0214 59.3812 29.0769 59.3673 29.136C59.3533 29.1951 59.3521 29.2565 59.3637 29.3162C59.3637 29.3162 61.4622 40.2152 70.9663 42.4942C71.0206 42.5072 71.077 42.5094 71.1322 42.5006C71.1873 42.4917 71.2402 42.472 71.2878 42.4426C71.3354 42.4133 71.3768 42.3747 71.4095 42.3293C71.4423 42.2838 71.4658 42.2323 71.4787 42.1777C71.5048 42.0676 71.4863 41.9515 71.4272 41.8551C71.3681 41.7587 71.2733 41.6898 71.1637 41.6635C62.8268 39.6644 60.5936 30.8083 60.3202 29.594C63.6261 29.2096 65.7279 27.2708 66.9542 25.3948C67.7099 24.2389 68.0982 23.2444 68.3387 22.4996C69.8048 25.2081 71.6773 26.7678 73.2694 27.5709C75.0435 28.4659 76.4768 28.5188 76.4768 28.5188C76.5489 28.5213 76.6206 28.5053 76.6849 28.4723C76.7492 28.4392 76.804 28.3903 76.8443 28.3301C76.8846 28.2698 76.9089 28.2003 76.915 28.128C76.9211 28.0557 76.9087 27.9831 76.8791 27.9169C76.7303 27.5848 76.6716 26.9751 76.7524 26.3389C76.8332 25.7028 77.0432 25.0364 77.3284 24.5584C77.6137 24.0804 77.9391 23.8299 78.2536 23.8145C78.5682 23.799 79.0382 24.006 79.64 24.8205C80.7304 26.2962 80.3717 27.6143 79.7335 28.6914C79.0952 29.7684 78.1659 30.4886 78.1659 30.4886C78.1072 30.5336 78.0613 30.5932 78.0325 30.6616C77.8859 31.0097 77.8781 31.4166 77.8949 31.976C77.9117 32.5353 77.9838 33.2132 78.1194 33.9366C78.3904 35.3836 78.9048 37.0104 79.8013 38.1892C81.0019 39.7678 82.9417 40.4866 84.5583 40.8366C86.175 41.1866 87.5114 41.1617 87.5114 41.1617C87.5672 41.1607 87.6223 41.1486 87.6735 41.1263C87.7247 41.1039 87.771 41.0716 87.8098 41.0312C87.8486 40.9909 87.8791 40.9432 87.8995 40.891C87.92 40.8388 87.9299 40.7831 87.9289 40.727C87.928 40.6709 87.916 40.6156 87.8937 40.5642C87.8714 40.5127 87.8393 40.4662 87.7991 40.4273C87.7589 40.3883 87.7115 40.3577 87.6595 40.3372C87.6075 40.3167 87.5521 40.3066 87.4962 40.3076C87.4962 40.3076 86.2524 40.3296 84.7377 40.0017C83.2229 39.6737 81.4805 38.9902 80.477 37.6707C79.7187 36.6737 79.2104 35.1421 78.9549 33.7784C78.8272 33.0966 78.7599 32.4562 78.7447 31.9502C78.7304 31.4743 78.7884 31.1324 78.8111 31.0509C78.9943 30.905 79.8038 30.2427 80.4642 29.1284C81.2021 27.8831 81.6223 26.0703 80.3228 24.3115C79.6338 23.3791 78.9207 22.9266 78.2119 22.9614C77.5031 22.9962 76.9653 23.5059 76.5992 24.1195C76.233 24.7331 76.0034 25.4898 75.9093 26.2308C75.849 26.7056 75.87 27.1557 75.9392 27.5809C75.448 27.5055 74.7136 27.3435 73.6508 26.8074C72.0251 25.9873 70.0392 24.3976 68.6044 21.2357C68.5671 21.1537 68.505 21.0857 68.427 21.0414C68.3489 20.9971 68.2589 20.9787 68.1698 20.9888Z"
      fill="#4A4947" />
    <path
      d="M76.9072 5.92422C76.1149 5.88922 75.277 5.91719 74.3901 6.01C70.9011 6.37522 68.8871 8.1726 67.7974 9.867C67.0128 11.0871 66.757 12.0429 66.6355 12.6083C64.0722 11.1838 61.8821 10.7557 60.0684 11.1428C58.1332 11.5558 56.6619 12.8449 55.6032 14.5166C53.4857 17.8598 52.8954 22.7603 53.1654 26.1505C53.6856 32.6802 52.0177 34.0627 50.9539 36.1602C50.9537 36.1602 50.9536 36.1602 50.9534 36.1602C50.4263 37.1995 49.7826 38.849 49.7089 40.7954C49.6351 42.7418 50.1489 44.9883 51.9075 47.1278C55.4838 51.4785 61.8728 49.9773 61.8728 49.9773C61.9827 49.9521 62.0781 49.884 62.1381 49.7881C62.1981 49.6922 62.2177 49.5763 62.1926 49.4659C62.1674 49.3555 62.0997 49.2596 62.0042 49.1994C61.9088 49.1392 61.7934 49.1195 61.6834 49.1447C61.6834 49.1447 55.7559 50.4686 52.5628 46.584C50.9368 44.6059 50.4914 42.6024 50.5586 40.8278C50.6259 39.0532 51.2228 37.5106 51.7111 36.5476C52.6782 34.6409 54.5459 32.7746 54.0128 26.0823C53.7563 22.8617 54.3706 18.0538 56.3206 14.975C57.2955 13.4356 58.5736 12.335 60.2449 11.9783C61.9161 11.6216 64.0338 12.0034 66.7052 13.6015C66.7658 13.6377 66.8344 13.6582 66.9048 13.6612C66.9753 13.6641 67.0454 13.6495 67.1088 13.6185C67.1722 13.5875 67.2269 13.5411 67.268 13.4836C67.3091 13.426 67.3353 13.3591 67.3443 13.2889C67.3443 13.2889 67.5284 11.8596 68.512 10.3302C69.4955 8.80083 71.2374 7.19852 74.4784 6.85928C77.8786 6.5034 80.3875 7.12782 82.3797 8.58689C84.3718 10.046 85.8663 12.3768 87.1091 15.4993C88.3584 18.6379 89.0994 21.4092 90.5941 23.6074C92.0888 25.8056 94.3669 27.3646 98.4674 27.9929C99.7683 28.1922 102.191 28.9942 104.072 30.5174C105.954 32.0406 107.318 34.2135 106.745 37.3664C106.168 40.5373 104.266 42.3516 102.001 43.3447C99.7362 44.3377 97.1022 44.4599 95.2453 44.1334C95.1342 44.1139 95.02 44.1395 94.9277 44.2045C94.8355 44.2696 94.7727 44.3688 94.7533 44.4804C94.7338 44.5919 94.7593 44.7066 94.8241 44.7993C94.8889 44.892 94.9876 44.955 95.0987 44.9746C97.1217 45.3303 99.8817 45.2057 102.341 44.1272C104.801 43.0488 106.955 40.9661 107.581 37.5199C108.211 34.0554 106.647 31.5051 104.606 29.8526C102.564 28.2002 100.069 27.3746 98.596 27.1489H98.5955C94.6511 26.5444 92.6744 25.1523 91.2963 23.1256C89.9181 21.0987 89.168 18.3709 87.8986 15.1819C86.6228 11.9766 85.0568 9.49055 82.8807 7.8968C81.2486 6.70149 79.2839 6.02921 76.9072 5.92422Z"
      fill="#4A4947" />
    <path fill-rule="evenodd" clip-rule="evenodd"
      d="M61.778 49.6541C61.778 49.6541 55.6198 51.0664 52.2351 46.9487C48.8504 42.8311 50.3169 38.4491 51.3324 36.4467C52.3478 34.4446 54.1156 32.8202 53.5889 26.2093C53.0625 19.5985 55.9985 6.79207 66.9227 13.3274C66.9227 13.3274 67.7042 7.23202 74.4342 6.52756C81.3819 5.80041 84.9852 9.10578 87.5039 15.4335C90.0226 21.7612 90.4863 26.4311 98.5316 27.6638C101.305 28.0886 108.366 30.9189 107.163 37.5363C105.96 44.1534 99.0519 45.329 95.1719 44.6467C94.859 44.4 94.5599 44.1663 94.2769 43.9435C91.1804 41.5039 89.3693 40.6069 87.5039 40.7345C87.5039 40.7345 82.3432 40.8277 80.1391 37.9296C78.4843 35.7538 78.0932 31.6134 78.424 30.8277C78.424 30.8277 82.3714 27.8002 79.9814 24.5658C77.3999 21.0718 75.679 26.2786 76.4913 28.0918C76.4913 28.0918 71.1659 27.9105 68.2175 21.4127C68.2175 21.4127 66.713 28.7989 59.7809 29.234C59.7809 29.234 61.8465 39.868 71.0651 42.0785C68.2933 41.5471 65.5788 44.6175 63.2491 47.6029C62.737 48.2593 62.2461 48.9482 61.778 49.6541Z"
      fill="#4A4947" />
    <path
      d="M61.7788 7.61974C60.6254 7.53247 59.3268 7.86344 57.8872 8.71779C57.7902 8.77537 57.7198 8.86933 57.6917 8.97899C57.6636 9.08865 57.68 9.20504 57.7373 9.30256C57.7946 9.40007 57.8882 9.47072 57.9973 9.49896C58.1065 9.5272 58.2224 9.51073 58.3195 9.45316C59.6498 8.66362 60.7686 8.3998 61.7148 8.4714C62.6609 8.54299 63.4556 8.9468 64.1502 9.58232C65.5394 10.8534 66.4659 13.0754 66.9576 15.0516C66.9711 15.106 66.9952 15.1572 67.0285 15.2023C67.0617 15.2474 67.1035 15.2854 67.1514 15.3143C67.1993 15.3432 67.2524 15.3623 67.3076 15.3705C67.3629 15.3787 67.4192 15.376 67.4734 15.3623C67.5827 15.3349 67.6767 15.2649 67.7347 15.1679C67.7927 15.0708 67.81 14.9546 67.7827 14.8448C67.2677 12.775 66.3305 10.4217 64.7229 8.95084C63.9191 8.21542 62.9322 7.70702 61.7788 7.61974Z"
      fill="#4A4947" />
  </g>
  <defs>
    <clipPath id="clip0_41_88">
      <rect width="96" height="90" fill="white" />
    </clipPath>
  </defs>
</svg>