<svg className="w-full h-auto" viewBox="0 0 96 90" fill="none" xmlns="http://www.w3.org/2000/svg">
  <g clip-path="url(#clip0_41_39)">
    <path
      d="M50.581 22.6507C50.4858 22.6765 50.4048 22.739 50.3557 22.8243C50.3067 22.9096 50.2937 23.0109 50.3196 23.1057C50.3196 23.1057 50.5926 24.1316 50.441 25.2077C50.3652 25.7457 50.1854 26.2831 49.8337 26.7172C49.482 27.1512 48.9596 27.4993 48.113 27.6561C48.0649 27.6649 48.019 27.6831 47.978 27.7097C47.937 27.7362 47.9017 27.7705 47.874 27.8106C47.8463 27.8507 47.8268 27.8959 47.8166 27.9435C47.8064 27.9912 47.8058 28.0403 47.8147 28.0882C47.8236 28.1361 47.842 28.1818 47.8686 28.2226C47.8953 28.2634 47.9298 28.2986 47.9701 28.3262C48.0104 28.3537 48.0558 28.3731 48.1037 28.3832C48.1515 28.3932 48.2009 28.3939 48.2489 28.3849C49.242 28.2011 49.9514 27.7525 50.413 27.1829C50.8746 26.6133 51.0895 25.9403 51.1782 25.3105C51.3557 24.051 51.0382 22.9115 51.0382 22.9115C51.0254 22.8645 51.0034 22.8204 50.9735 22.7818C50.9436 22.7433 50.9063 22.7109 50.8639 22.6867C50.8214 22.6625 50.7746 22.6469 50.7261 22.6407C50.6775 22.6345 50.6282 22.6379 50.581 22.6507Z"
      fill="#4A4947" />
    <path
      d="M54.424 29.97C54.3274 29.99 54.2427 30.0474 54.1885 30.1296C53.206 31.6235 51.9938 31.8971 50.9653 31.8434C49.9369 31.7897 49.1447 31.3706 49.1447 31.3706C49.0578 31.3241 48.9558 31.3139 48.8613 31.3423C48.7667 31.3706 48.6874 31.4352 48.6407 31.5218C48.594 31.6085 48.5837 31.71 48.6122 31.8042C48.6407 31.8983 48.7055 31.9773 48.7925 32.0239C48.7925 32.0239 49.7149 32.5208 50.9265 32.5841C52.1382 32.6473 53.6915 32.2387 54.8114 30.5359C54.8654 30.4537 54.8844 30.3534 54.8643 30.2572C54.8442 30.161 54.7866 30.0767 54.7041 30.0228C54.6632 29.9961 54.6174 29.9777 54.5693 29.9686C54.5213 29.9596 54.4719 29.96 54.424 29.97Z"
      fill="#4A4947" />
    <path
      d="M55.6205 22.7687C55.5223 22.7589 55.4242 22.7883 55.3477 22.8505C55.2713 22.9127 55.2228 23.0026 55.2129 23.1004C55.1427 23.7925 55.3217 24.354 55.669 24.7201C56.0164 25.0862 56.5035 25.2382 56.9697 25.2114C57.4359 25.1846 57.8964 24.9856 58.2319 24.6253C58.5675 24.265 58.762 23.7354 58.6911 23.1276C58.6855 23.0792 58.6703 23.0324 58.6465 22.9898C58.6227 22.9473 58.5907 22.9098 58.5524 22.8795C58.514 22.8493 58.4701 22.8269 58.423 22.8136C58.376 22.8002 58.3267 22.7963 58.2781 22.802C58.1801 22.8134 58.0907 22.8631 58.0294 22.9401C57.9682 23.0172 57.9402 23.1153 57.9515 23.2129C57.9999 23.628 57.8804 23.9125 57.686 24.1213C57.4916 24.33 57.206 24.455 56.9269 24.4711C56.6477 24.4871 56.3902 24.4007 56.2102 24.211C56.0303 24.0213 55.8993 23.7096 55.9535 23.175C55.9584 23.1265 55.9537 23.0776 55.9396 23.0309C55.9255 22.9843 55.9024 22.9408 55.8715 22.9031C55.8405 22.8654 55.8024 22.8341 55.7594 22.811C55.7163 22.788 55.6691 22.7736 55.6205 22.7687Z"
      fill="#4A4947" />
    <path
      d="M47.9685 22.925C47.8702 22.9337 47.7794 22.9809 47.716 23.0562C47.6526 23.1316 47.6218 23.229 47.6305 23.3269C47.6743 23.8238 47.5473 24.1326 47.3622 24.3344C47.1771 24.5362 46.9119 24.6415 46.6243 24.6459C46.0493 24.6548 45.4485 24.2951 45.4124 23.4607C45.4103 23.412 45.3986 23.3643 45.3779 23.3201C45.3573 23.276 45.3282 23.2363 45.2921 23.2033C45.2561 23.1704 45.2139 23.1449 45.168 23.1282C45.122 23.1116 45.0732 23.104 45.0244 23.1061C44.9755 23.1082 44.9276 23.1199 44.8833 23.1405C44.8389 23.161 44.7991 23.1901 44.7661 23.2259C44.733 23.2618 44.7074 23.3039 44.6906 23.3496C44.6739 23.3954 44.6663 23.4439 44.6684 23.4926C44.7205 24.697 45.7015 25.4016 46.6358 25.3872C47.103 25.38 47.5747 25.202 47.9119 24.8344C48.249 24.4668 48.4301 23.9202 48.3721 23.2617C48.3634 23.1638 48.316 23.0733 48.2403 23.0102C48.1646 22.947 48.0669 22.9164 47.9685 22.925Z"
      fill="#4A4947" />
    <path
      d="M46.8083 20.8408C44.9976 20.8408 43.5217 22.3108 43.5217 24.1142C43.5217 25.9176 44.9976 27.3876 46.8083 27.3876C48.6189 27.3876 50.0949 25.9176 50.0949 24.1142C50.0949 22.3108 48.6189 20.8408 46.8083 20.8408ZM46.8083 21.5838C48.2158 21.5838 49.3489 22.7123 49.3489 24.1142C49.3489 25.516 48.2158 26.6446 46.8083 26.6446C45.4008 26.6446 44.2677 25.516 44.2677 24.1142C44.2677 22.7123 45.4008 21.5838 46.8083 21.5838Z"
      fill="#4A4947" />
    <path
      d="M56.6532 20.3232C54.7299 20.3232 53.1628 21.8843 53.1628 23.7999C53.1628 25.7155 54.7299 27.2763 56.6532 27.2763C58.5766 27.2763 60.144 25.7155 60.144 23.7999C60.144 21.8843 58.5766 20.3232 56.6532 20.3232ZM56.6532 21.0635C58.1749 21.0635 59.4007 22.2844 59.4007 23.7999C59.4007 25.3155 58.1749 26.536 56.6532 26.536C55.1316 26.536 53.9061 25.3155 53.9061 23.7999C53.9061 22.2844 55.1315 21.0635 56.6532 21.0635Z"
      fill="#4A4947" />
    <path
      d="M51.5363 20.863C50.607 20.7793 49.648 21.1144 48.6788 21.7753C48.6385 21.8028 48.604 21.838 48.5773 21.8788C48.5506 21.9196 48.5322 21.9652 48.5232 22.0131C48.5142 22.0609 48.5148 22.1101 48.5249 22.1578C48.5349 22.2054 48.5544 22.2506 48.582 22.2908C48.6096 22.331 48.6449 22.3654 48.6859 22.3919C48.7268 22.4185 48.7727 22.4368 48.8207 22.4458C48.8688 22.4548 48.9181 22.4542 48.966 22.4442C49.0138 22.4341 49.0592 22.4148 49.0996 22.3872C49.9771 21.7888 50.7637 21.5381 51.4691 21.6016C52.1745 21.6651 52.84 22.0358 53.4976 22.8197C53.5609 22.8952 53.6517 22.9424 53.75 22.9512C53.8483 22.96 53.9461 22.9295 54.0219 22.8664C54.0976 22.8034 54.1451 22.7129 54.1539 22.615C54.1627 22.5171 54.1321 22.4197 54.0688 22.3442C53.3236 21.4558 52.4654 20.9466 51.5363 20.863Z"
      fill="#4A4947" />
    <path
      d="M57.0287 18.121C56.1686 18.0562 55.2813 18.2756 54.4051 18.7437C54.362 18.7667 54.3239 18.798 54.2929 18.8356C54.262 18.8733 54.2388 18.9167 54.2246 18.9633C54.2105 19.01 54.2057 19.0589 54.2106 19.1073C54.2154 19.1558 54.2298 19.2028 54.2529 19.2457C54.2761 19.2887 54.3074 19.3266 54.3452 19.3575C54.3831 19.3883 54.4267 19.4114 54.4735 19.4255C54.5203 19.4396 54.5694 19.4443 54.6181 19.4395C54.6667 19.4347 54.7139 19.4203 54.757 19.3973C56.3284 18.5578 57.6584 18.5928 58.9985 19.7622C59.0727 19.827 59.1698 19.8598 59.2683 19.8533C59.3668 19.8468 59.4587 19.8016 59.5238 19.7276C59.5888 19.6536 59.6217 19.557 59.6152 19.4589C59.6087 19.3607 59.5633 19.2692 59.489 19.2044C58.7218 18.5348 57.8888 18.1858 57.0287 18.121Z"
      fill="#4A4947" />
    <path
      d="M47.4888 18.3715C45.8672 18.344 44.6215 18.9487 43.7858 20.0729C43.7271 20.1519 43.7023 20.2509 43.7168 20.3481C43.7314 20.4454 43.7841 20.5329 43.8634 20.5914C43.9027 20.6204 43.9474 20.6414 43.9948 20.6532C44.0423 20.665 44.0916 20.6675 44.14 20.6603C44.1883 20.6531 44.2348 20.6365 44.2768 20.6114C44.3187 20.5864 44.3553 20.5533 44.3844 20.5141C45.3292 19.243 46.7406 18.7621 49.0553 19.3339C49.1512 19.3575 49.2525 19.3423 49.337 19.2915C49.4215 19.2407 49.4824 19.1585 49.5061 19.0631C49.5298 18.9677 49.5145 18.8668 49.4636 18.7826C49.4126 18.6984 49.3302 18.6378 49.2345 18.6141C48.6117 18.4603 48.0293 18.3807 47.4888 18.3715Z"
      fill="#4A4947" />
    <path
      d="M62.8536 25.4224C62.755 25.4162 62.6581 25.4491 62.584 25.5141C62.5099 25.5791 62.4647 25.6707 62.4585 25.7688C62.2639 28.8067 61.345 30.8444 59.8666 32.1415C59.8298 32.1737 59.7998 32.2127 59.7783 32.2565C59.7567 32.3002 59.744 32.3478 59.7409 32.3964C59.7378 32.445 59.7444 32.4938 59.7602 32.5399C59.776 32.586 59.8008 32.6285 59.8332 32.6651C59.8985 32.7388 59.9905 32.7837 60.089 32.7899C60.1875 32.796 60.2844 32.763 60.3585 32.698C62.0137 31.2457 62.9986 28.9822 63.2014 25.8159C63.2077 25.7178 63.1745 25.6212 63.1093 25.5474C63.0441 25.4736 62.9521 25.4286 62.8536 25.4224Z"
      fill="#4A4947" />
    <path
      d="M65.0234 21.1052C64.8747 21.123 64.7244 21.1629 64.5767 21.2259C63.9386 21.4971 63.5015 22.1281 63.1694 22.6775C62.8373 23.2271 62.6326 23.722 62.6326 23.722C62.6139 23.767 62.6043 23.8153 62.6043 23.864C62.6044 23.9127 62.6141 23.961 62.6328 24.006C62.6516 24.051 62.6791 24.0919 62.7137 24.1263C62.7484 24.1607 62.7895 24.188 62.8347 24.2065C62.926 24.2441 63.0285 24.2439 63.1197 24.2062C63.2109 24.1685 63.2832 24.0962 63.3209 24.0052C63.3209 24.0052 63.5074 23.5565 63.8074 23.06C64.1076 22.5634 64.5437 22.046 64.8692 21.9077C65.2426 21.7484 65.4597 21.8069 65.6709 22.0216C65.8822 22.2363 66.0603 22.678 66.0673 23.2982C66.0769 24.0586 65.9326 25.6255 64.1607 27.6469C64.1601 27.6475 64.1596 27.6481 64.159 27.6486C64.0868 27.7315 63.7017 28.0013 63.4444 28.0442C63.3157 28.0656 63.238 28.0504 63.1741 28.0048C63.1102 27.9593 63.022 27.8533 62.968 27.5724C62.9588 27.5245 62.9403 27.4789 62.9134 27.4382C62.8866 27.3975 62.8519 27.3625 62.8115 27.3351C62.771 27.3078 62.7256 27.2886 62.6777 27.2787C62.6298 27.2689 62.5804 27.2685 62.5324 27.2777C62.4843 27.2868 62.4385 27.3052 62.3976 27.332C62.3567 27.3588 62.3215 27.3933 62.2941 27.4336C62.2666 27.4739 62.2473 27.5193 62.2375 27.567C62.2276 27.6148 62.2272 27.664 62.2365 27.7118C62.3138 28.1139 62.4831 28.4242 62.7409 28.608C62.9987 28.7919 63.3072 28.819 63.5672 28.7757C64.0866 28.6892 64.4887 28.4013 64.7207 28.1352C66.607 25.9831 66.822 24.1715 66.8109 23.2905C66.8024 22.5395 66.604 21.9121 66.2016 21.5031C65.8997 21.1964 65.4679 21.0524 65.0217 21.1059L65.0234 21.1052Z"
      fill="#4A4947" />
    <path
      d="M47.7739 0.018342C45.7029 -0.0523718 39.5772 -0.199889 35.0715 5.61645C34.5013 6.35309 33.7736 7.58539 33.6031 9.1721C33.4326 10.7588 33.8404 12.6889 35.476 14.7319C36.4372 15.9305 39.9846 18.9915 47.1068 17.4192C48.6881 17.0707 52.9868 15.7714 55.7564 11.14C56.1299 12.432 57.0439 14.943 58.9883 16.7646C60.3604 18.0499 62.1792 18.6468 63.9039 18.6592C65.6285 18.6716 67.2784 18.1061 68.309 16.9844C70.4412 14.6659 71.8206 10.3531 68.8299 4.85431C68.159 3.6204 67.0954 2.38192 65.6716 1.61487C64.2477 0.847809 62.455 0.572997 60.4375 1.27043C59.2464 1.68239 57.4459 2.60565 56.1009 4.9027C55.3438 3.64083 52.851 0.189982 47.7735 0.018342H47.7739ZM47.7482 0.759312C53.4952 0.953595 55.7712 5.79959 55.7712 5.79959C55.8011 5.86258 55.8481 5.91594 55.907 5.95354C55.9658 5.99114 56.0341 6.01144 56.104 6.01218C56.174 6.01292 56.2427 5.99405 56.3023 5.9577C56.362 5.92135 56.4101 5.86899 56.4413 5.80665C57.7119 3.25904 59.493 2.38221 60.6817 1.97108C62.5165 1.33682 64.0536 1.58635 65.3173 2.26713C66.581 2.94789 67.5628 4.08083 68.1754 5.20749C71.0444 10.4827 69.6943 14.3801 67.76 16.4833C66.9163 17.4019 65.465 17.9284 63.9096 17.9172C62.3543 17.906 60.7145 17.3631 59.4988 16.2243C57.0282 13.9098 56.2578 10.1359 56.2578 10.1359C56.2429 10.0602 56.2047 9.99108 56.1485 9.93806C56.0923 9.88504 56.021 9.85078 55.9443 9.84002C55.8677 9.82927 55.7896 9.84254 55.7209 9.87804C55.6522 9.91353 55.5963 9.96948 55.561 10.0381C52.9681 15.0705 48.5249 16.3472 46.9465 16.695C40.0736 18.2125 36.853 15.2594 36.0587 14.2692C34.5264 12.3551 34.1932 10.6545 34.344 9.25107C34.4948 7.84761 35.1507 6.72986 35.6619 6.06943C39.9663 0.51329 45.6877 0.689279 47.7489 0.759648L47.7482 0.759312Z"
      fill="#4A4947" />
    <path fill-rule="evenodd" clip-rule="evenodd"
      d="M55.8923 10.2078C55.8923 10.2078 56.6559 14.0704 59.2437 16.4946C61.8314 18.9188 66.1605 18.7743 68.0348 16.7338C70.0681 14.5229 71.4328 10.4177 68.503 5.03074C67.2195 2.67018 64.4123 0.288951 60.56 1.62064C59.3214 2.04905 57.4263 2.99881 56.1083 5.64154C56.1083 5.64154 53.7157 0.590059 47.7611 0.388757C45.695 0.318215 39.7714 0.156477 35.3664 5.84283C34.285 7.2399 32.5989 10.5433 35.7671 14.5005C36.6447 15.5948 40.0288 18.6023 47.0269 17.0572C48.6507 16.6994 53.232 15.3711 55.8923 10.2078Z"
      fill="#4A4947" />
    <path
      d="M63.6945 17.9177C63.6459 17.9234 63.599 17.9387 63.5563 17.9625C63.5137 17.9864 63.4762 18.0184 63.4459 18.0567C63.4157 18.095 63.3933 18.1388 63.3801 18.1857C63.3669 18.2326 63.3631 18.2816 63.3689 18.33C63.3689 18.33 63.6788 21.1805 63.0335 22.9217C62.9993 23.0139 63.0034 23.1159 63.0447 23.2052C63.086 23.2945 63.1612 23.3638 63.2538 23.3978C63.3465 23.4319 63.4488 23.4279 63.5385 23.3867C63.6281 23.3456 63.6977 23.2706 63.7319 23.1784C64.4894 21.1344 64.1085 18.2416 64.1085 18.2416C64.0967 18.144 64.0465 18.055 63.9688 17.9943C63.8912 17.9335 63.7925 17.906 63.6945 17.9177Z"
      fill="#4A4947" />
    <path
      d="M68.8458 15.2182C68.7487 15.2358 68.6626 15.2911 68.6064 15.372C68.5502 15.4528 68.5285 15.5526 68.5462 15.6493C68.5462 15.6493 69.2327 19.3113 66.1348 22.5876C66.1013 22.623 66.0751 22.6647 66.0578 22.7102C66.0404 22.7558 66.0323 22.8043 66.0337 22.853C66.0352 22.9016 66.0463 22.9496 66.0664 22.994C66.0864 23.0384 66.1151 23.0784 66.1507 23.1118C66.1863 23.1452 66.2282 23.1713 66.2739 23.1885C66.3196 23.2058 66.3683 23.214 66.4172 23.2125C66.466 23.211 66.5141 23.2 66.5587 23.18C66.6033 23.16 66.6435 23.1314 66.677 23.096C70.0053 19.5761 69.2787 15.5162 69.2787 15.5162C69.261 15.4195 69.2054 15.3339 69.1242 15.278C69.0431 15.2221 68.9429 15.2006 68.8458 15.2182Z"
      fill="#4A4947" />
    <path
      d="M68.6144 17.9659C67.0216 18.8795 65.4468 19.1135 63.8358 19.0218C63.7373 19.0162 63.6405 19.0499 63.5669 19.1154C63.4932 19.1808 63.4487 19.2728 63.4431 19.3709C63.4375 19.469 63.4713 19.5654 63.5369 19.6387C63.6026 19.7121 63.6948 19.7564 63.7933 19.7621C65.506 19.8596 67.255 19.6016 68.9859 18.6088C69.0283 18.5845 69.0655 18.5521 69.0953 18.5135C69.1251 18.4749 69.147 18.4309 69.1597 18.3839C69.1724 18.3368 69.1757 18.2878 69.1694 18.2395C69.1631 18.1912 69.1473 18.1446 69.1229 18.1024C69.0985 18.0602 69.066 18.0232 69.0272 17.9935C68.9885 17.9638 68.9442 17.9419 68.897 17.9293C68.8498 17.9166 68.8005 17.9133 68.7521 17.9196C68.7036 17.9259 68.6568 17.9416 68.6144 17.9659Z"
      fill="#4A4947" />
    <path
      d="M68.1545 19.4802C66.7544 20.401 65.3209 20.7274 63.8121 20.619C63.7136 20.6119 63.6164 20.6441 63.5417 20.7084C63.4671 20.7728 63.4211 20.864 63.414 20.9621C63.4069 21.0602 63.4392 21.1571 63.5038 21.2314C63.5684 21.3058 63.66 21.3515 63.7585 21.3586C65.411 21.4773 67.035 21.105 68.5647 20.0988C68.6055 20.072 68.6406 20.0374 68.668 19.9971C68.6954 19.9567 68.7146 19.9114 68.7244 19.8637C68.7342 19.816 68.7345 19.7668 68.7252 19.719C68.7159 19.6712 68.6973 19.6257 68.6703 19.585C68.6159 19.503 68.5309 19.4459 68.4342 19.4262C68.3375 19.4065 68.2368 19.4259 68.1545 19.4802Z"
      fill="#4A4947" />
    <path
      d="M59.3042 21.7496C59.2058 21.7423 59.1085 21.7742 59.0337 21.8384C58.9589 21.9025 58.9128 21.9936 58.9054 22.0916C58.8981 22.1897 58.9302 22.2866 58.9946 22.3611C59.059 22.4355 59.1504 22.4815 59.2489 22.4888L63.5399 22.8091C63.6383 22.8164 63.7356 22.7844 63.8104 22.7202C63.8852 22.6561 63.9313 22.565 63.9387 22.467C63.9424 22.4184 63.9364 22.3696 63.9211 22.3234C63.9058 22.2771 63.8815 22.2343 63.8496 22.1974C63.8178 22.1605 63.7789 22.1301 63.7352 22.1082C63.6916 22.0862 63.644 22.0731 63.5952 22.0695L59.3042 21.7496Z"
      fill="#4A4947" />
    <path
      d="M40.2732 25.9637C40.2248 25.9704 40.1781 25.9866 40.136 26.0112C40.0938 26.0359 40.0569 26.0686 40.0274 26.1074C39.998 26.1463 39.9765 26.1905 39.9642 26.2376C39.9518 26.2848 39.949 26.3338 39.9557 26.3821C39.9557 26.3821 40.8111 32.763 45.5498 35.9713C45.9478 36.2405 47.6934 37.4922 50.1327 37.8864C52.5719 38.2807 55.7418 37.8023 58.9395 34.7592C59.0109 34.6913 59.0522 34.5979 59.0545 34.4996C59.0568 34.4013 59.0197 34.3061 58.9515 34.235C58.9178 34.1998 58.8773 34.1715 58.8326 34.1518C58.7878 34.1321 58.7396 34.1214 58.6907 34.1203C58.6418 34.1191 58.5931 34.1276 58.5475 34.1453C58.5019 34.1629 58.4602 34.1893 58.4249 34.223C55.3743 37.1261 52.5025 37.5183 50.2521 37.1546C48.0016 36.7909 46.4096 35.6564 45.9681 35.3578C41.5787 32.386 40.6928 26.2797 40.6928 26.2797C40.6793 26.1823 40.6274 26.0943 40.5487 26.035C40.47 25.9757 40.3709 25.95 40.2731 25.9635L40.2732 25.9637Z"
      fill="#4A4947" />
    <path
      d="M41.0903 16.9303C40.9942 16.9077 40.8931 16.9242 40.8091 16.9759C40.7251 17.0276 40.6652 17.1105 40.6426 17.2062C40.6426 17.2062 40.4357 18.0784 40.2664 19.1915C40.182 19.7465 40.105 20.3604 40.0683 20.9648C39.9654 20.8288 39.8506 20.6978 39.7202 20.5807C39.4533 20.3411 39.1082 20.1525 38.7042 20.1449C38.259 20.1362 37.8512 20.3853 37.5237 20.7659C37.1961 21.1464 36.9363 21.6748 36.7922 22.3241C36.5039 23.6226 36.6873 25.4054 37.8375 27.4306C37.986 27.6915 38.3256 28.314 38.8962 28.6588C39.1815 28.8312 39.5736 28.9218 39.9472 28.7697C40.3208 28.6176 40.631 28.2767 40.9139 27.7333C40.9364 27.6901 40.9502 27.6429 40.9543 27.5943C40.9585 27.5458 40.9531 27.4969 40.9383 27.4505C40.9235 27.404 40.8997 27.361 40.8682 27.3237C40.8366 27.2864 40.7981 27.2557 40.7546 27.2333C40.667 27.1881 40.5649 27.1794 40.4708 27.2091C40.3767 27.2389 40.2983 27.3046 40.2529 27.3919C40.0158 27.8473 39.799 28.0288 39.6655 28.0831C39.532 28.1375 39.4371 28.1184 39.2825 28.025C38.9735 27.8383 38.6222 27.3048 38.4856 27.0649C37.411 25.1726 37.2768 23.5782 37.5196 22.4844C37.6411 21.9374 37.8589 21.516 38.0892 21.2484C38.3195 20.9808 38.5497 20.8835 38.6901 20.8862C38.8726 20.8896 39.0437 20.9715 39.2218 21.1315C39.3999 21.2914 39.5691 21.5253 39.7063 21.7666C39.9809 22.2491 40.126 22.7388 40.126 22.7388C40.1528 22.8287 40.2128 22.9053 40.2939 22.9529C40.375 23.0006 40.4713 23.0159 40.5633 22.9957C40.6552 22.9755 40.7361 22.9213 40.7896 22.8441C40.8431 22.7669 40.8652 22.6723 40.8515 22.5795C40.7182 21.7079 40.8385 20.3842 41.0029 19.3027C41.1675 18.2213 41.3677 17.3765 41.3677 17.3765C41.3789 17.3291 41.3807 17.28 41.3729 17.2319C41.365 17.1838 41.3478 17.1377 41.322 17.0962C41.2963 17.0548 41.2626 17.0188 41.2229 16.9903C41.1832 16.9619 41.1383 16.9414 41.0907 16.9303H41.0903Z"
      fill="#4A4947" />
    <path
      d="M36.2841 14.662C36.1856 14.6564 36.0888 14.6901 36.0152 14.7556C35.9415 14.821 35.897 14.913 35.8914 15.0111C35.8914 15.0111 35.8238 16.1857 35.9238 17.642C36.0237 19.0983 36.2725 20.8402 36.9923 22.0592C37.0171 22.1012 37.05 22.138 37.089 22.1673C37.128 22.1967 37.1725 22.2181 37.2198 22.2303C37.2672 22.2425 37.3165 22.2454 37.3649 22.2386C37.4134 22.2319 37.46 22.2157 37.5021 22.191C37.5443 22.1663 37.5811 22.1335 37.6106 22.0947C37.64 22.0558 37.6615 22.0115 37.6737 21.9643C37.686 21.9172 37.6888 21.8681 37.682 21.8199C37.6752 21.7716 37.6589 21.7252 37.6341 21.6832C37.0392 20.6758 36.7633 18.9983 36.6667 17.5916C36.5702 16.1849 36.6347 15.0535 36.6347 15.0535C36.6375 15.0048 36.6307 14.9561 36.6146 14.9101C36.5985 14.8641 36.5734 14.8217 36.5409 14.7854C36.5083 14.749 36.4689 14.7194 36.4248 14.6982C36.3808 14.677 36.333 14.6647 36.2841 14.662Z"
      fill="#4A4947" />
    <path
      d="M36.2996 16.1174C36.2512 16.1104 36.2019 16.1129 36.1545 16.1248C36.1071 16.1368 36.0625 16.1579 36.0233 16.187C35.9441 16.2457 35.8916 16.3334 35.8773 16.4307C35.863 16.528 35.8881 16.627 35.947 16.7058C35.947 16.7058 36.2844 17.1428 37.0372 17.5782C37.79 18.0136 38.9826 18.4806 40.7607 18.6566C40.859 18.6663 40.9571 18.6367 41.0334 18.5744C41.1098 18.5121 41.1582 18.4221 41.168 18.3242C41.1777 18.2264 41.148 18.1286 41.0854 18.0526C41.0229 17.9765 40.9325 17.9283 40.8343 17.9186C39.1522 17.7522 38.0691 17.3176 37.411 16.937C36.7529 16.5565 36.5442 16.2629 36.5442 16.2629C36.4853 16.1841 36.3973 16.1317 36.2996 16.1174Z"
      fill="#4A4947" />
    <path
      d="M36.4484 18.2552C36.3511 18.2396 36.2515 18.263 36.1714 18.3204C36.1317 18.3489 36.0981 18.3849 36.0724 18.4263C36.0466 18.4678 36.0294 18.5139 36.0215 18.562C36.0137 18.61 36.0154 18.6592 36.0267 18.7066C36.0379 18.754 36.0585 18.7988 36.0871 18.8383C36.0871 18.8383 36.1775 18.9568 36.3324 19.0863C36.4872 19.2157 36.7233 19.3793 37.0639 19.5399C37.7449 19.8612 38.8414 20.1706 40.5485 20.1962C40.6472 20.1977 40.7425 20.1601 40.8133 20.0917C40.8842 20.0232 40.9249 19.9296 40.9264 19.8313C40.9271 19.7826 40.9183 19.7342 40.9002 19.6889C40.8822 19.6436 40.8554 19.6024 40.8213 19.5674C40.7873 19.5325 40.7466 19.5045 40.7017 19.4852C40.6568 19.4659 40.6086 19.4556 40.5597 19.4549C38.938 19.4306 37.9519 19.138 37.3827 18.8695C37.0981 18.7353 36.9171 18.6069 36.8112 18.5184C36.7052 18.4298 36.691 18.4041 36.691 18.4041C36.6332 18.3244 36.5459 18.2709 36.4484 18.2552Z"
      fill="#4A4947" />
    <path
      d="M40.4307 21.5009C40.332 21.4983 40.2363 21.5348 40.1647 21.6025C40.0931 21.6702 40.0514 21.7635 40.0488 21.8618C40.0475 21.9105 40.0559 21.9589 40.0734 22.0044C40.0909 22.0499 40.1173 22.0915 40.151 22.1268C40.1847 22.1621 40.225 22.1905 40.2697 22.2103C40.3144 22.2301 40.3626 22.2409 40.4115 22.2422C40.4115 22.2422 42.684 22.3055 44.4063 22.714C44.4538 22.7252 44.5032 22.7271 44.5514 22.7194C44.5997 22.7117 44.646 22.6945 44.6876 22.669C44.7293 22.6435 44.7655 22.6101 44.7941 22.5706C44.8228 22.5312 44.8434 22.4865 44.8547 22.4391C44.8776 22.3435 44.8614 22.2427 44.8097 22.159C44.758 22.0752 44.675 22.0153 44.579 21.9925C42.7323 21.5545 40.4307 21.5009 40.4307 21.5009Z"
      fill="#4A4947" />
    <path
      d="M45.2798 36.5245C45.2321 36.5139 45.1828 36.5128 45.1346 36.5212C45.0864 36.5296 45.0404 36.5474 44.9991 36.5735C44.9991 36.5735 39.9923 39.7011 40.1821 44.5982C40.1849 44.6706 40.2089 44.7405 40.2511 44.7995C40.2934 44.8584 40.352 44.9037 40.4198 44.9298C40.4876 44.956 40.5617 44.9617 40.6327 44.9465C40.7038 44.9312 40.7688 44.8955 40.8198 44.8439C40.8198 44.8439 41.7869 43.8664 42.8148 43.1475C43.3288 42.7881 43.8646 42.5024 44.2309 42.4281C44.414 42.3909 44.5402 42.4051 44.6182 42.4411C44.6962 42.4771 44.7609 42.5327 44.824 42.7103C44.8403 42.7562 44.8656 42.7985 44.8983 42.8347C44.931 42.8709 44.9706 42.9003 45.0147 42.9213C45.0589 42.9423 45.1068 42.9544 45.1556 42.9569C45.2044 42.9595 45.2533 42.9524 45.2994 42.9361C45.3455 42.9199 45.388 42.8947 45.4243 42.8621C45.4607 42.8295 45.4902 42.7901 45.5113 42.7462C45.5323 42.7022 45.5445 42.6545 45.547 42.6059C45.5496 42.5572 45.5425 42.5085 45.5262 42.4626C45.4136 42.146 45.2022 41.8934 44.9313 41.7684C44.6605 41.6433 44.3651 41.6437 44.0821 41.7012C43.516 41.816 42.9404 42.1535 42.387 42.5406C41.8477 42.9177 41.3434 43.3472 40.9601 43.6922C41.3751 39.8014 45.3993 37.1989 45.3993 37.1989C45.4825 37.146 45.5413 37.0625 45.5627 36.9665C45.5841 36.8705 45.5663 36.77 45.5133 36.6871C45.4602 36.6042 45.3762 36.5457 45.2798 36.5245Z"
      fill="#4A4947" />
    <path
      d="M47.6545 37.5428C47.6087 37.5256 47.56 37.5175 47.5111 37.519C47.4622 37.5205 47.4141 37.5316 47.3695 37.5516C47.3249 37.5716 47.2848 37.6002 47.2513 37.6358C47.2178 37.6713 47.1916 37.713 47.1743 37.7586C47.1743 37.7586 44.5765 44.5773 45.1199 51.8209C45.1236 51.8694 45.1368 51.9168 45.1588 51.9603C45.1809 52.0038 45.2113 52.0425 45.2483 52.0743C45.2854 52.106 45.3284 52.1302 45.3748 52.1455C45.4213 52.1607 45.4703 52.1666 45.5191 52.163C45.5678 52.1593 45.6154 52.1462 45.659 52.1242C45.7027 52.1023 45.7416 52.072 45.7735 52.0351C45.8054 51.9982 45.8296 51.9554 45.8449 51.9091C45.8602 51.8628 45.8662 51.814 45.8625 51.7654C45.3349 44.7321 47.8711 38.0207 47.8711 38.0207C47.9059 37.9287 47.9027 37.8267 47.8621 37.7371C47.8215 37.6475 47.7468 37.5776 47.6545 37.5428Z"
      fill="#4A4947" />
    <path
      d="M54.2756 39.3149C54.1801 39.34 54.0986 39.4018 54.0489 39.4867C54.0489 39.4867 50.7226 45.1414 50.0412 51.0055C50.0299 51.1032 50.0579 51.2013 50.1193 51.2784C50.1806 51.3555 50.2701 51.4051 50.3682 51.4165C50.4168 51.4221 50.466 51.4181 50.513 51.4047C50.56 51.3913 50.604 51.3689 50.6423 51.3386C50.6806 51.3084 50.7126 51.2709 50.7363 51.2283C50.7601 51.1857 50.7752 51.1389 50.7808 51.0905C51.4365 45.4477 54.6919 39.8603 54.6919 39.8603C54.7417 39.7754 54.7555 39.6743 54.7304 39.5792C54.7053 39.4841 54.6433 39.4028 54.558 39.3533C54.5158 39.3287 54.4691 39.3127 54.4206 39.3061C54.3722 39.2996 54.3229 39.3025 54.2756 39.3149Z"
      fill="#4A4947" />
    <path
      d="M46.7904 39.7836C46.6918 39.7882 46.599 39.8315 46.5325 39.9042C46.466 39.9769 46.4312 40.0728 46.4358 40.1711C46.4906 41.3573 46.7529 42.27 47.2101 42.9219C47.6673 43.5737 48.336 43.9425 49.0746 43.9999C50.5517 44.1147 52.26 43.1286 53.8781 41.3694C53.9111 41.3335 53.9367 41.2914 53.9534 41.2456C53.9701 41.1999 53.9776 41.1513 53.9754 41.1026C53.9732 41.054 53.9615 41.0062 53.9408 40.9621C53.9201 40.918 53.8909 40.8784 53.8548 40.8455C53.8188 40.8126 53.7765 40.7871 53.7306 40.7705C53.6846 40.7539 53.6358 40.7464 53.587 40.7486C53.5382 40.7507 53.4902 40.7625 53.4459 40.7831C53.4016 40.8037 53.3618 40.8328 53.3288 40.8687C51.7977 42.5333 50.2134 43.3446 49.1326 43.2606C48.5922 43.2186 48.1655 42.989 47.8208 42.4975C47.476 42.0059 47.2299 41.2303 47.1794 40.1368C47.1748 40.0386 47.1313 39.9462 47.0583 39.88C46.9853 39.8137 46.889 39.7791 46.7904 39.7836Z"
      fill="#4A4947" />
    <path
      d="M58.6709 37.0591C58.6224 37.0525 58.5731 37.0554 58.5258 37.0678C58.4785 37.0801 58.4342 37.1016 58.3952 37.131C58.3562 37.1604 58.3235 37.1972 58.2987 37.2392C58.274 37.2813 58.2579 37.3277 58.2512 37.376C58.2445 37.4242 58.2475 37.4733 58.2599 37.5204C58.2722 37.5675 58.2938 37.6117 58.3233 37.6505C58.3233 37.6505 58.8753 38.3727 59.0363 39.5761C59.1869 40.7022 58.9837 42.2289 57.5719 43.9782C57.2957 43.6026 56.8539 43.0374 56.222 42.4956C55.7651 42.1039 55.2615 41.7646 54.6879 41.7358C54.4011 41.7213 54.0962 41.8053 53.8471 42.0013C53.598 42.1972 53.4056 42.4873 53.2566 42.8683C53.2388 42.9136 53.2302 42.962 53.2312 43.0107C53.2322 43.0594 53.2429 43.1074 53.2625 43.152C53.2822 43.1966 53.3104 43.2369 53.3457 43.2706C53.381 43.3043 53.4226 43.3308 53.4682 43.3485C53.5137 43.3661 53.5624 43.3747 53.6113 43.3737C53.6602 43.3727 53.7084 43.362 53.7531 43.3425C53.7979 43.3229 53.8384 43.2946 53.8722 43.2594C53.906 43.2243 53.9326 43.1828 53.9503 43.1374C54.0665 42.8405 54.1964 42.6716 54.3086 42.5833C54.4209 42.495 54.5166 42.4697 54.6504 42.4764C54.918 42.4899 55.3366 42.7152 55.7362 43.0578C56.5352 43.7429 57.2504 44.7907 57.2504 44.7907C57.2821 44.8377 57.3242 44.8769 57.3734 44.9051C57.4227 44.9334 57.4777 44.9501 57.5344 44.9539C57.5911 44.9576 57.648 44.9485 57.7005 44.927C57.7531 44.9056 57.8001 44.8724 57.8378 44.8301C59.6539 42.7897 59.9604 40.8682 59.7745 39.4783C59.5886 38.0883 58.9168 37.2026 58.9168 37.2026C58.8873 37.1638 58.8504 37.1311 58.8082 37.1065C58.766 37.0819 58.7193 37.0658 58.6709 37.0591Z"
      fill="#4A4947" />
    <path
      d="M45.2788 55.4919C45.1871 55.5284 45.1138 55.5997 45.0749 55.6901C45.036 55.7804 45.0347 55.8825 45.0713 55.9738C45.0713 55.9738 45.7176 57.5747 46.5458 62.2947C47.3738 67.0147 48.3712 74.8219 49.0391 87.1406C49.0445 87.2388 49.0888 87.3308 49.1622 87.3965C49.2357 87.4621 49.3323 87.496 49.4309 87.4908C49.4797 87.4882 49.5275 87.476 49.5716 87.455C49.6157 87.434 49.6553 87.4046 49.6879 87.3683C49.7206 87.3321 49.7458 87.2898 49.7621 87.2439C49.7784 87.1979 49.7854 87.1493 49.7828 87.1006C49.1136 74.759 48.1139 66.9242 47.2793 62.1671C46.4446 57.4099 45.7626 55.6986 45.7626 55.6986C45.726 55.6073 45.6544 55.5342 45.5637 55.4955C45.473 55.4567 45.3705 55.4554 45.2788 55.4919Z"
      fill="currentColor" />
    <path
      d="M21.7061 49.2611C15.6378 49.3399 11.0166 50.111 11.0166 50.111C10.9196 50.1271 10.833 50.1808 10.7756 50.2603C10.7182 50.3398 10.6947 50.4387 10.7102 50.5354C11.087 52.8759 11.3536 55.13 11.5203 57.3063C11.5279 57.4043 11.5742 57.4954 11.6491 57.5594C11.724 57.6234 11.8214 57.6552 11.9198 57.6477C11.9686 57.644 12.0161 57.6308 12.0598 57.6089C12.1034 57.5869 12.1423 57.5565 12.1741 57.5196C12.206 57.4826 12.2302 57.4398 12.2455 57.3935C12.2607 57.3472 12.2666 57.2984 12.2629 57.2498C12.1036 55.1701 11.8461 53.0152 11.4977 50.7901C12.4013 50.6488 17.7341 49.8616 24.3688 50.0155C31.6246 50.1839 40.132 51.5421 45.1661 56.1103C45.203 56.1438 45.2462 56.1696 45.2933 56.1861C45.3403 56.2026 45.3902 56.2095 45.44 56.2064C45.4898 56.2034 45.5385 56.1903 45.5831 56.1682C45.6277 56.146 45.6675 56.1151 45.6999 56.0774C45.6999 56.0774 46.0523 55.655 47.173 54.9977C48.2937 54.3403 50.1555 53.4802 53.0889 52.7069C58.9056 51.1735 68.9558 49.99 85.7445 51.3883C85.6131 51.9525 84.8865 55.1449 84.4843 59.9677C84.4802 60.0163 84.4858 60.0651 84.5007 60.1115C84.5157 60.1579 84.5396 60.2009 84.5712 60.2381C84.6028 60.2753 84.6415 60.3059 84.685 60.3281C84.7285 60.3504 84.776 60.364 84.8247 60.368C84.8734 60.372 84.9225 60.3664 84.9691 60.3516C85.0157 60.3367 85.0588 60.3128 85.0962 60.2814C85.1335 60.2499 85.1642 60.2114 85.1866 60.1681C85.209 60.1247 85.2225 60.0774 85.2265 60.0289C85.6613 54.8156 86.5542 51.1352 86.5542 51.1352C86.5668 51.0833 86.568 51.0293 86.5577 50.9768C86.5474 50.9244 86.5259 50.8748 86.4945 50.8314C86.4632 50.788 86.4228 50.7519 86.3762 50.7256C86.3295 50.6992 86.2777 50.6831 86.2242 50.6786C69.1131 49.2179 58.8785 50.4136 52.8983 51.9901C49.9082 52.7784 47.9819 53.6624 46.7951 54.3585C46.0264 54.8094 45.6409 55.1277 45.4053 55.3435C40.0991 50.7315 31.603 49.4414 24.386 49.2739C23.4693 49.2526 22.573 49.2499 21.7061 49.2611ZM11.9772 67.3072C11.8787 67.3006 11.7816 67.3332 11.7073 67.3979C11.6329 67.4625 11.5874 67.5539 11.5807 67.652C11.0292 75.7685 9.09027 82.8197 6.60206 89.4671C6.57914 89.5284 6.57293 89.5947 6.58405 89.6592C6.59517 89.7237 6.62323 89.7841 6.66538 89.8343C6.70753 89.8846 6.76226 89.9228 6.82402 89.9451C6.88579 89.9674 6.95239 89.973 7.01706 89.9614C20.7248 87.4966 31.1625 87.5063 38.1671 88.1293C45.1717 88.7523 48.7172 89.9796 48.7172 89.9796C48.8105 90.0118 48.9129 90.0058 49.0017 89.9628C49.0905 89.9199 49.1586 89.8436 49.191 89.7507C49.207 89.7047 49.2137 89.656 49.2108 89.6074C49.2079 89.5587 49.1954 89.5112 49.174 89.4674C49.1527 89.4235 49.1229 89.3843 49.0863 89.352C49.0497 89.3197 49.0071 89.2948 48.9608 89.2789C48.9608 89.2789 45.3028 88.0194 38.2336 87.3907C31.2738 86.7717 20.9656 86.7674 7.50527 89.1304C9.90509 82.6099 11.7824 75.6674 12.3237 67.7021C12.327 67.6535 12.3206 67.6047 12.3049 67.5586C12.2893 67.5124 12.2647 67.4698 12.2325 67.4331C12.2004 67.3965 12.1612 67.3665 12.1174 67.3449C12.0736 67.3233 12.0259 67.3105 11.9772 67.3072ZM84.7619 69.4253C84.7132 69.4291 84.6657 69.4425 84.6221 69.4646C84.5785 69.4868 84.5397 69.5173 84.508 69.5544C84.4763 69.5914 84.4521 69.6344 84.4371 69.6807C84.422 69.7271 84.4163 69.7759 84.4202 69.8245C84.9173 76.0277 86.6299 82.5538 90.8449 87.3571C88.6929 86.8864 83.6265 85.8946 77.3753 85.4568C69.0283 84.8722 58.5592 85.2638 50.0473 89.242C50.003 89.2626 49.9633 89.2918 49.9303 89.3278C49.8974 89.3638 49.8719 89.4059 49.8553 89.4517C49.8387 89.4975 49.8313 89.5461 49.8335 89.5948C49.8358 89.6434 49.8477 89.6912 49.8685 89.7353C49.8892 89.7793 49.9185 89.8189 49.9547 89.8517C49.9908 89.8846 50.0331 89.91 50.0791 89.9265C50.1251 89.943 50.1739 89.9504 50.2227 89.9481C50.2716 89.9459 50.3195 89.9341 50.3638 89.9134C58.6793 86.027 69.0433 85.6166 77.323 86.1964C85.6026 86.7762 91.7812 88.3336 91.7812 88.3336C91.86 88.3535 91.9431 88.3471 92.0179 88.3155C92.0927 88.2839 92.1551 88.2287 92.1955 88.1585C92.2359 88.0883 92.2522 88.0069 92.2418 87.9266C92.2313 87.8463 92.1948 87.7717 92.1378 87.714C87.5184 83.0372 85.682 76.2481 85.1624 69.7654C85.1546 69.6674 85.108 69.5765 85.0329 69.5128C84.9578 69.449 84.8603 69.4175 84.7619 69.4253Z"
      fill="currentColor" />
    <path
      d="M60.6913 37.6879C60.3338 37.6817 60.1346 37.6929 60.1346 37.6929C60.0857 37.6957 60.0379 37.708 59.9939 37.7292C59.9498 37.7503 59.9104 37.78 59.8778 37.8163C59.8453 37.8527 59.8202 37.895 59.8041 37.941C59.788 37.987 59.7812 38.0358 59.784 38.0844C59.7868 38.133 59.7991 38.1806 59.8204 38.2245C59.8417 38.2683 59.8714 38.3077 59.9079 38.3401C59.9444 38.3725 59.987 38.3974 60.0331 38.4135C60.0793 38.4295 60.1282 38.4363 60.1771 38.4335C60.1771 38.4335 63.202 38.2607 66.7779 39.693C70.3539 41.1253 74.4498 44.1347 76.5986 50.5969C76.614 50.6431 76.6383 50.6859 76.6703 50.7228C76.7023 50.7597 76.7412 50.7899 76.7849 50.8118C76.8286 50.8337 76.8763 50.8468 76.9251 50.8503C76.9739 50.8538 77.0229 50.8478 77.0693 50.8324C77.1157 50.8171 77.1586 50.7928 77.1956 50.7609C77.2326 50.7291 77.2629 50.6903 77.2849 50.6468C77.3068 50.6032 77.3199 50.5558 77.3235 50.5072C77.327 50.4587 77.3209 50.4099 77.3055 50.3637C75.089 43.6982 70.7869 40.4991 67.056 39.0048C64.2578 37.884 61.7635 37.7066 60.6913 37.6879Z"
      fill="#4A4947" />
    <path
      d="M41.666 38.0596C41.666 38.0596 31.4129 38.6261 25.7762 49.5381C25.731 49.6255 25.7226 49.7273 25.7527 49.8209C25.7828 49.9145 25.849 49.9924 25.9368 50.0374C26.0246 50.0824 26.1267 50.0909 26.2207 50.0609C26.3148 50.0309 26.393 49.9649 26.4382 49.8775C31.9126 39.2795 41.7051 38.7999 41.7051 38.7999C41.8037 38.7947 41.8962 38.7508 41.9622 38.6778C42.0283 38.6048 42.0625 38.5086 42.0574 38.4104C42.0548 38.3618 42.0427 38.3141 42.0216 38.2702C42.0005 38.2262 41.971 38.1869 41.9347 38.1543C41.8983 38.1217 41.8559 38.0965 41.8098 38.0803C41.7637 38.0641 41.7148 38.057 41.666 38.0596Z"
      fill="#4A4947" />
    <path
      d="M10.8311 59.6684C10.7858 59.65 10.7372 59.6408 10.6883 59.6411C10.6394 59.6415 10.591 59.6514 10.546 59.6704C10.5009 59.6894 10.4601 59.717 10.4257 59.7517C10.3914 59.7864 10.3643 59.8275 10.3459 59.8727C10.3088 59.9638 10.3096 60.0659 10.3481 60.1564C10.3866 60.247 10.4596 60.3186 10.551 60.3556C10.551 60.3556 12.7475 61.2491 14.3346 61.5761C15.0399 61.7221 15.8646 62.0642 16.4964 62.4629C17.1281 62.8616 17.5134 63.3517 17.5308 63.5389C17.563 63.8777 17.4621 64.1187 17.2734 64.2678C17.0847 64.4168 16.7653 64.5028 16.2561 64.3733C15.6688 64.2232 14.1785 63.8376 12.7492 63.4791C12.0345 63.2998 11.3349 63.1272 10.769 62.9938C10.2031 62.8605 9.79708 62.7679 9.56652 62.7401C9.51798 62.7343 9.46876 62.738 9.42167 62.7511C9.37458 62.7642 9.33052 62.7864 9.29204 62.8165C9.25357 62.8465 9.22142 62.8838 9.19742 62.9263C9.17342 62.9687 9.15804 63.0154 9.15217 63.0637C9.1463 63.1121 9.15005 63.1611 9.1632 63.208C9.17635 63.2549 9.19865 63.2988 9.22882 63.3371C9.259 63.3754 9.29645 63.4074 9.33905 63.4313C9.38165 63.4552 9.42856 63.4706 9.47711 63.4764C9.58944 63.49 10.0379 63.5838 10.5976 63.7157C11.1573 63.8475 11.8545 64.0194 12.5673 64.1982C13.993 64.5558 15.4806 64.9407 16.0716 65.0917C16.7385 65.2615 17.3294 65.1703 17.7363 64.8488C18.1431 64.5273 18.3228 64.0045 18.2721 63.4693C18.2079 62.7846 17.6081 62.286 16.8948 61.8358C16.1813 61.3855 15.3011 61.018 14.4861 60.8492C13.0329 60.5499 10.8314 59.6677 10.8314 59.6677L10.8311 59.6684Z"
      fill="#4A4947" />
    <path
      d="M15.554 64.258C15.5079 64.2743 15.4654 64.2994 15.4291 64.332C15.3927 64.3646 15.3632 64.404 15.3421 64.448C15.3211 64.492 15.3089 64.5396 15.3063 64.5883C15.3038 64.6369 15.3109 64.6856 15.3272 64.7315C15.3272 64.7315 15.4035 64.9695 15.3782 65.1946C15.3656 65.3071 15.3319 65.4021 15.2682 65.4779C15.2045 65.5536 15.1047 65.628 14.8832 65.6721C14.4104 65.7661 13.2413 65.7577 12.1435 65.6757C11.0458 65.5938 9.94271 65.4317 9.63532 65.3333C9.54131 65.3032 9.43916 65.3115 9.35133 65.3565C9.26351 65.4014 9.19721 65.4793 9.16701 65.5729C9.13681 65.6665 9.1452 65.7682 9.19031 65.8557C9.23543 65.9432 9.31357 66.0092 9.40757 66.0393C9.92245 66.2041 10.9615 66.3313 12.0879 66.4153C13.2143 66.4994 14.3513 66.534 15.029 66.3992C15.3818 66.3289 15.6593 66.1673 15.8387 65.9539C16.0181 65.7405 16.0935 65.493 16.1178 65.2771C16.1663 64.8454 16.029 64.4837 16.029 64.4837C16.0127 64.4378 15.9875 64.3955 15.9547 64.3593C15.922 64.3231 15.8824 64.2937 15.8383 64.2727C15.7942 64.2517 15.7463 64.2396 15.6975 64.2371C15.6486 64.2345 15.5997 64.2416 15.5536 64.2579L15.554 64.258Z"
      fill="#4A4947" />
    <path
      d="M8.67064 56.2833C8.40188 56.29 8.13265 56.3141 7.86459 56.3583C7.29884 56.4511 6.8741 56.6899 6.59429 57.0082C6.3144 57.3265 6.18331 57.7042 6.11754 58.0533C6.05178 58.4023 6.04777 58.7321 6.03893 58.9794C6.03444 59.103 6.02857 59.2066 6.01936 59.2687C6.01659 59.2876 6.01349 59.2915 6.01021 59.3003C5.99414 59.311 5.87408 59.4021 5.70619 59.511C5.52511 59.6284 5.30513 59.7735 5.10967 59.9707C4.91422 60.1679 4.7346 60.4329 4.70141 60.7675C4.66823 61.1021 4.79276 61.4636 5.06715 61.8166C5.48994 62.3595 5.60442 62.8524 5.72137 63.3637C5.8383 63.8751 5.96096 64.4393 6.45623 64.883C6.74228 65.1401 6.84439 65.5932 6.95963 66.127C7.07492 66.6609 7.22415 67.3096 7.83282 67.6492C8.73606 68.1546 9.94362 68.203 11.0506 68.1348C12.1577 68.0666 13.1659 67.8618 13.6297 67.7578C13.9289 67.6909 14.1697 67.5319 14.3203 67.335C14.4711 67.138 14.5349 66.9187 14.5606 66.7261C14.6119 66.3409 14.517 66.0127 14.517 66.0127C14.4913 65.9178 14.4288 65.837 14.3433 65.788C14.2578 65.739 14.1562 65.7258 14.0609 65.7513C13.9655 65.7768 13.8843 65.8391 13.835 65.9243C13.7857 66.0095 13.7724 66.1107 13.798 66.2056C13.798 66.2056 13.85 66.4204 13.8223 66.6284C13.8085 66.7323 13.7765 66.8223 13.7282 66.8854C13.6799 66.9486 13.6188 67.0004 13.4667 67.0343C13.0253 67.1333 12.0478 67.3303 11.005 67.3945C9.96232 67.4588 8.85624 67.3708 8.19788 67.0024C7.90307 66.8379 7.80096 66.4896 7.68908 65.9714C7.57719 65.4532 7.47635 64.7995 6.95591 64.3322C6.64445 64.0532 6.56671 63.7139 6.44914 63.1998C6.33157 62.6857 6.17767 62.0313 5.65724 61.363C5.4609 61.1104 5.4325 60.9535 5.44369 60.8408C5.45492 60.728 5.51704 60.6167 5.64073 60.492C5.76444 60.3672 5.94124 60.2449 6.11377 60.1331C6.28627 60.0212 6.44516 59.945 6.5976 59.7701C6.72128 59.6286 6.73926 59.4981 6.75719 59.3776C6.77515 59.2569 6.77989 59.1354 6.78452 59.006C6.79367 58.7472 6.80004 58.459 6.85063 58.1904C6.90124 57.9218 6.99291 57.6823 7.15563 57.4972C7.31838 57.312 7.55617 57.1608 7.98699 57.0902C9.82952 56.7864 11.9616 57.6387 13.1921 58.2455C14.5226 58.9016 16.0751 60.2485 16.5212 60.6543C16.5218 60.6543 16.5223 60.6543 16.5229 60.6543C16.547 60.676 16.6325 60.7865 16.6835 60.9033C16.7345 61.0201 16.754 61.145 16.7449 61.2064C16.7357 61.2677 16.7473 61.2722 16.6514 61.3136C16.5556 61.3549 16.3162 61.3933 15.9051 61.3266C15.8077 61.3109 15.7079 61.3343 15.6278 61.3918C15.5477 61.4493 15.4938 61.5361 15.478 61.6331C15.4621 61.7302 15.4857 61.8295 15.5434 61.9093C15.6011 61.9891 15.6882 62.0427 15.7857 62.0585C16.2772 62.1382 16.6471 62.1239 16.9473 61.9943C17.2476 61.8648 17.442 61.5803 17.4814 61.3152C17.5209 61.0501 17.4553 60.8113 17.3664 60.6075C17.2776 60.4041 17.1688 60.2374 17.0239 60.1061C16.5542 59.6789 15.005 58.3113 13.5234 57.5808C12.4023 57.0278 10.5536 56.2358 8.67229 56.2833L8.67064 56.2833Z"
      fill="#4A4947" />
    <path
      d="M5.77275 65.0669C5.77275 65.0669 1.28561 68.4919 -0.537629 75.1881C-0.852947 76.3445 -0.944868 77.9879 -0.517385 79.6528C-0.0899362 81.3175 0.873874 83.0057 2.67003 84.1487C3.27216 84.5322 4.26228 84.7202 5.4448 84.691C6.6273 84.6618 7.98828 84.3883 9.22873 83.7125C9.31527 83.6653 9.37944 83.5857 9.40715 83.4914C9.43486 83.3971 9.42384 83.2957 9.37651 83.2094C9.35306 83.1667 9.32138 83.129 9.28328 83.0984C9.24519 83.0679 9.20142 83.0451 9.15448 83.0314C9.10755 83.0177 9.05837 83.0133 9.00974 83.0186C8.96111 83.0238 8.914 83.0385 8.87109 83.0619C7.75871 83.6679 6.50673 83.9227 5.42624 83.9494C4.34575 83.9761 3.42263 83.7478 3.07119 83.524C1.45225 82.4939 0.595319 80.9931 0.203975 79.469C-0.187387 77.9448 -0.0961778 76.399 0.181032 75.3824C1.9406 68.92 6.22554 65.6557 6.22554 65.6557C6.26435 65.626 6.29694 65.5891 6.32142 65.5469C6.34591 65.5048 6.36182 65.4583 6.36824 65.41C6.37466 65.3617 6.37147 65.3126 6.35886 65.2656C6.34624 65.2185 6.32444 65.1745 6.29471 65.1358C6.26498 65.0971 6.2279 65.0647 6.18558 65.0403C6.14326 65.0159 6.09652 65.0001 6.04805 64.9937C5.99958 64.9873 5.95033 64.9905 5.90309 65.003C5.85585 65.0156 5.81156 65.0373 5.77275 65.0669Z"
      fill="#4A4947" />
    <path fill-rule="evenodd" clip-rule="evenodd"
      d="M11.6498 70.9563C11.4822 72.3844 11.2749 73.7797 11.0296 75.1458C3.06937 74.5213 5.37038 68.1157 5.80743 67.0473C6.16329 66.1801 6.37578 66.4072 6.54853 67.4378C7.31553 72.0196 11.6498 70.9563 11.6498 70.9563Z"
      fill="#4A4947" />
    <path
      d="M87.0344 61.8758C86.9424 61.84 86.84 61.842 86.7496 61.8814C86.7496 61.8814 83.0655 63.4838 81.8215 64.185C81.4307 64.4062 81.1562 64.6449 80.9892 64.9179C80.8222 65.191 80.7807 65.5139 80.8755 65.7839C81.0651 66.324 81.6328 66.5932 82.2379 66.6307C83.5138 66.7096 86.2501 66.5098 87.6231 66.1421C87.7184 66.1166 87.7997 66.0544 87.849 65.9692C87.8983 65.884 87.9116 65.7827 87.8859 65.6878C87.8603 65.5928 87.7978 65.5119 87.7123 65.4628C87.6267 65.4137 87.5251 65.4005 87.4298 65.426C86.2461 65.743 83.4025 65.9595 82.2841 65.8904C81.889 65.8659 81.6206 65.6595 81.5783 65.5389C81.5571 65.4786 81.5507 65.4248 81.6248 65.3037C81.6989 65.1826 81.8717 65.0097 82.1886 64.8302C83.3014 64.203 87.0482 62.5609 87.0482 62.5609C87.093 62.5414 87.1334 62.5132 87.1673 62.478C87.2011 62.4429 87.2277 62.4015 87.2454 62.3561C87.2632 62.3107 87.2718 62.2623 87.2708 62.2136C87.2698 62.1649 87.2591 62.1169 87.2395 62.0723C87.1999 61.9822 87.126 61.9115 87.034 61.8757L87.0344 61.8758Z"
      fill="#4A4947" />
    <path
      d="M82.9603 65.9282C82.9143 65.9114 82.8656 65.9039 82.8167 65.906C82.7678 65.908 82.7199 65.9197 82.6755 65.9402C82.6755 65.9402 82.4441 66.0459 82.2089 66.2292C81.9738 66.4124 81.6706 66.6967 81.6795 67.1419C81.6859 67.503 81.8748 67.8821 82.2359 68.1406C82.597 68.3992 83.1112 68.5484 83.8031 68.5586C85.1267 68.5782 87.6859 68.391 87.6859 68.391C87.7844 68.3839 87.876 68.3381 87.9406 68.2637C88.0052 68.1894 88.0375 68.0925 88.0304 67.9944C88.0233 67.8964 87.9773 67.8051 87.9027 67.7408C87.828 67.6764 87.7307 67.6443 87.6322 67.6513C87.6322 67.6513 85.0504 67.8356 83.8139 67.8173C83.2258 67.8087 82.8659 67.6781 82.6708 67.5384C82.4757 67.3987 82.4261 67.2611 82.4238 67.1284C82.4238 67.1279 82.4238 67.1273 82.4238 67.1267C82.4221 67.0804 82.51 66.9358 82.6678 66.8129C82.8255 66.6899 82.9896 66.6122 82.9896 66.6122C83.034 66.5917 83.0738 66.5627 83.1069 66.5268C83.1399 66.4909 83.1656 66.4489 83.1823 66.4031C83.1991 66.3574 83.2066 66.3088 83.2046 66.2602C83.2025 66.2115 83.1908 66.1638 83.1701 66.1196C83.1285 66.0305 83.053 65.9614 82.9603 65.9277V65.9282Z"
      fill="#4A4947" />
    <path
      d="M87.9582 58.2365C87.0184 58.264 85.8587 58.676 84.6162 59.7144C84.1447 60.1077 83.4139 60.7982 82.7433 61.4671C82.0727 62.1361 81.4917 62.7388 81.2486 63.0929C81.1274 63.2692 81.0418 63.4567 81.0206 63.6635C80.9993 63.8704 81.0608 64.1037 81.2108 64.2711C81.5109 64.6058 81.993 64.663 82.6286 64.5742C82.7264 64.5605 82.8146 64.5087 82.8741 64.4301C82.9335 64.3516 82.9591 64.2528 82.9454 64.1555C82.9317 64.0581 82.8797 63.9702 82.8008 63.911C82.722 63.8518 82.6228 63.8263 82.525 63.8399C82.0032 63.9129 81.7831 63.796 81.7662 63.7771C81.7577 63.7676 81.757 63.7795 81.7612 63.7391C81.7653 63.6988 81.7927 63.614 81.8631 63.5116C81.9932 63.3221 82.61 62.6498 83.27 61.9914C83.9301 61.3329 84.6621 60.6435 85.094 60.2833C87.377 58.3753 89.0476 59.0477 89.3763 59.5006C89.9372 60.2778 90.6818 60.9133 91.6244 61.7491C92.0691 62.1434 92.497 62.6467 92.7516 63.0744C92.8789 63.2883 92.961 63.4846 92.9888 63.6155C93.0166 63.7463 92.9918 63.7739 92.9973 63.7673C92.8552 63.9369 92.5019 64.226 92.2125 64.5923C91.923 64.9587 91.6776 65.4852 91.8741 66.0524C91.9822 66.3647 91.9505 66.7189 91.755 67.2101C91.5595 67.7013 91.1995 68.3043 90.7178 69.0328C90.264 69.7204 89.8449 70.0217 89.4529 70.1652C89.0611 70.3086 88.6692 70.2959 88.2528 70.256C87.8937 70.2207 86.9863 70.0109 86.0732 69.767C85.1598 69.5231 84.2125 69.244 83.6763 69.0711C83.4604 69.001 83.3761 68.921 83.3355 68.8614C83.2949 68.8017 83.2839 68.7425 83.2896 68.6608C83.3012 68.4973 83.407 68.3136 83.407 68.3136C83.4337 68.2729 83.4521 68.2272 83.4611 68.1793C83.4701 68.1314 83.4695 68.0823 83.4594 68.0347C83.4493 67.987 83.4299 67.9418 83.4023 67.9016C83.3747 67.8614 83.3394 67.8271 83.2984 67.8005C83.2574 67.7739 83.2116 67.7556 83.1636 67.7467C83.1155 67.7377 83.0661 67.7383 83.0183 67.7483C82.9705 67.7583 82.9251 67.7777 82.8847 67.8052C82.8444 67.8327 82.8099 67.8679 82.7832 67.9087C82.7832 67.9087 82.5756 68.2044 82.547 68.6087C82.5327 68.8108 82.5697 69.0578 82.7191 69.2774C82.8684 69.4971 83.1159 69.6697 83.4462 69.7768C84.0035 69.9565 84.9539 70.2358 85.8798 70.4831C86.8058 70.7304 87.6785 70.9447 88.1799 70.9939C88.6235 71.0365 89.1526 71.0652 89.709 70.8615C90.2653 70.6579 90.822 70.2235 91.339 69.4404C91.8298 68.698 92.2135 68.0673 92.446 67.4832C92.6785 66.8991 92.759 66.3364 92.5769 65.8108C92.4831 65.5401 92.579 65.3268 92.7969 65.051C93.0148 64.7752 93.335 64.5199 93.5678 64.2421C93.7599 64.0128 93.7702 63.7167 93.716 63.4618C93.6618 63.207 93.5448 62.9552 93.3907 62.6963C93.0826 62.1787 92.6182 61.6385 92.118 61.195C91.171 60.3552 90.4682 59.7452 89.9789 59.0671C89.6164 58.5675 88.8967 58.2106 87.9569 58.2381L87.9582 58.2365Z"
      fill="#4A4947" />
    <path
      d="M93.1122 66.0122C93.0774 66.0463 93.0496 66.087 93.0306 66.1319C93.0115 66.1767 93.0015 66.2249 93.0011 66.2736C93.0007 66.3224 93.01 66.3706 93.0284 66.4158C93.0468 66.4609 93.0739 66.502 93.1083 66.5367C93.1083 66.5367 96.6648 70.1934 96.2781 74.3285C96.0506 76.746 95.6641 79.1355 94.558 80.7153C93.452 82.2951 91.6704 83.164 88.305 82.5813C88.2078 82.5645 88.1078 82.5868 88.027 82.6434C87.9463 82.7 87.8914 82.7862 87.8745 82.8831C87.8661 82.9311 87.8673 82.9803 87.8779 83.0278C87.8886 83.0754 87.9086 83.1204 87.9367 83.1602C87.9649 83.2001 88.0006 83.234 88.0419 83.2601C88.0832 83.2861 88.1293 83.3039 88.1775 83.3122C91.7187 83.9253 93.912 82.9344 95.1687 81.1394C96.4255 79.3444 96.7895 76.8442 97.0197 74.3977C97.4484 69.8132 93.639 66.0169 93.639 66.0169C93.6047 65.9821 93.5639 65.9544 93.5188 65.9354C93.4738 65.9164 93.4254 65.9064 93.3765 65.906C93.3276 65.9056 93.2791 65.9148 93.2338 65.9331C93.1884 65.9514 93.1471 65.9784 93.1123 66.0126L93.1122 66.0122Z"
      fill="#4A4947" />
    <path fill-rule="evenodd" clip-rule="evenodd"
      d="M84.9642 71.5449C84.9642 71.5449 87.0217 72.9815 89.2864 72.3449C90.2037 72.0868 92.116 71.3298 92.6274 68.9451C92.7276 68.472 93.2423 67.8595 93.3736 68.8144C93.5274 69.9207 93.3494 72.5961 91.8724 74.5059C91.5615 74.9068 89.6751 77.3826 85.4877 74.8809C85.2665 73.7729 85.0938 72.6563 84.9642 71.5449Z"
      fill="#4A4947" />
  </g>
  <defs>
    <clipPath id="clip0_41_39">
      <rect width="96" height="90" fill="white" />
    </clipPath>
  </defs>
</svg>